<svg width="185" height="188" viewBox="0 0 185 188" fill="none" xmlns="http://www.w3.org/2000/svg">
<path d="M99.3437 1.15953C102.542 1.82449 105.226 3.36966 107.398 5.7953C108.254 7.31447 108.572 8.95057 108.354 10.7036C111.475 10.8306 113.522 12.3758 114.496 15.3394C114.94 19.0191 114.258 22.473 112.449 25.7013H112.176C112.546 22.0429 111.772 18.6795 109.855 15.6119C109.299 15.0103 108.708 14.4649 108.08 13.9758C107.833 13.5763 107.469 13.3036 106.988 13.1577C104.444 15.4303 101.623 17.2482 98.5247 18.6113C94.0145 20.2943 89.3733 21.4758 84.6007 22.1562C84.9015 21.7221 84.7194 21.4949 84.0546 21.4745C84.3746 21.3602 84.6477 21.1786 84.8737 20.9291C91.3694 20.0269 96.7843 17.1636 101.118 12.3396C102.095 10.7764 102.914 9.14022 103.576 7.43128C103.758 6.15868 103.758 4.8862 103.576 3.61361C103.169 3.20357 102.668 2.97631 102.074 2.9319C101.735 2.01862 101.144 1.79139 100.299 2.2502C100.111 1.74568 99.7925 1.38214 99.3437 1.15953Z" fill="#312043"/>
<path d="M99.3437 1.15953C99.7925 1.38214 100.111 1.74575 100.299 2.25028C101.143 1.79147 101.735 2.01871 102.074 2.93198C102.668 2.97639 103.168 3.20365 103.575 3.61368C103.758 4.8862 103.758 6.15868 103.575 7.43135C102.913 9.1404 102.094 10.7765 101.118 12.3396C96.7841 17.1637 91.3692 20.0269 84.8735 20.9292C84.6475 21.1787 84.3745 21.3603 84.0545 21.4746C84.7193 21.495 84.9014 21.7222 84.6005 22.1563C82.3773 22.5247 80.1018 22.7974 77.7751 22.9744C78.2444 23.5317 78.6995 24.0771 79.1402 24.6104C79.7173 27.2577 79.0804 29.5756 77.229 31.5638C76.6991 32.0827 76.0621 32.3099 75.3179 32.2455C75.3916 33.4803 75.5737 34.6618 75.8639 35.7904C75.9521 36.8065 75.8609 37.8064 75.5909 38.79C74.9165 37.3061 74.0065 35.9879 72.8607 34.836C72.0318 34.289 71.1218 34.0615 70.1305 34.1542C69.0815 31.967 68.2625 29.6948 67.6733 27.3373C67.065 25.3022 66.7008 23.2119 66.5813 21.0656C65.8624 20.8474 65.3163 20.4384 64.9431 19.8385C65.307 19.475 65.6713 19.1112 66.0352 18.7478C65.7622 18.2932 65.4891 17.8389 65.2161 17.3843C66.0024 15.8706 67.0033 14.5073 68.2194 13.2941C65.7565 12.6037 64.8461 11.0129 65.4893 8.52223C66.1967 10.0466 67.3799 10.9556 69.0385 11.249C69.9627 10.2292 70.8274 9.13844 71.6323 7.97692C79.6194 0.631038 88.857 -1.6412 99.344 1.15993L99.3437 1.15953Z" fill="#38284C"/>
<path d="M80.5045 13.4296C81.3504 13.4059 81.4416 13.5422 80.7776 13.8386C78.5636 14.6348 76.2885 14.9983 73.9521 14.9294C76.1983 14.5454 78.3822 14.0453 80.5045 13.4296Z" fill="#A0969F"/>
<path d="M108.081 13.9747C108.708 14.4638 109.299 15.0092 109.855 15.6108C111.772 18.6784 112.546 22.0418 112.176 25.7001C112.246 26.3251 112.155 26.916 111.903 27.4726C111.812 27.5181 111.721 27.5634 111.63 27.6089C111.417 27.2737 111.28 26.9103 111.22 26.5182C110.944 26.7464 110.626 26.8372 110.265 26.7908C110.326 26.078 110.007 25.6235 109.309 25.4274C107.58 25.6093 105.851 25.7909 104.122 25.9728C104.031 25.882 103.94 25.7909 103.849 25.7001C103.399 26.0319 102.898 26.2591 102.347 26.3818C102.544 27.061 102.726 27.7428 102.893 28.4269C102.556 28.3667 102.283 28.1848 102.074 27.8815C101.814 28.1068 101.541 28.152 101.255 28.0179C101.346 27.7452 101.437 27.4725 101.528 27.1999C101.073 27.018 100.618 27.018 100.163 27.1999C100.481 27.7092 100.39 28.2093 99.8898 28.6996C99.3839 29.0432 98.8834 29.0432 98.3882 28.6996C98.1416 29.0271 97.8233 29.2545 97.4326 29.3813C96.6007 30.8748 95.6451 32.1019 94.5659 33.0626C94.475 32.79 94.3838 32.5173 94.2928 32.2446C94.0198 32.3354 93.7468 32.4265 93.4738 32.5173C93.2977 32.2048 93.0702 31.9321 92.7912 31.6992C92.9733 31.6084 93.1552 31.5174 93.3373 31.4265C93.1273 30.6057 92.8996 29.7877 92.6547 28.9724C92.0055 28.5876 91.3229 28.2697 90.607 28.018C90.859 27.4615 90.95 26.8706 90.8801 26.2456C90.056 26.2005 89.237 26.2461 88.4229 26.3819C88.7379 26.6311 88.6923 26.8582 88.2863 27.0636C87.926 26.4956 87.5618 26.5867 87.1943 27.3363C87.1034 27.2455 87.0122 27.1544 86.9212 27.0636C86.6299 27.252 86.3113 27.3883 85.9657 27.4726C86.6758 28.1666 87.3584 28.2121 88.0133 27.609C88.3835 27.8489 88.7931 27.94 89.2419 27.8817C89.2037 28.3245 89.3858 28.6424 89.788 28.8361C88.0857 29.586 86.3564 29.6767 84.6005 29.1087C84.9644 29.018 85.3286 28.9269 85.6926 28.8361C84.4812 28.2503 83.5256 28.3867 82.8258 29.2451C81.9464 28.7799 81.446 29.1434 81.3242 30.3359C80.7782 30.154 80.2321 29.9724 79.6861 29.7905C79.6555 31.1793 79.4281 31.1793 79.0035 29.7905C78.9243 30.4591 78.7425 31.0953 78.4575 31.6993C78.2615 31.4399 78.034 31.3947 77.7749 31.5629C77.0965 31.9684 76.5048 32.4685 76.0003 33.0627C75.8643 33.9672 75.8187 34.8761 75.8638 35.7895C75.5736 34.6608 75.3914 33.4793 75.3177 32.2446C76.062 32.3089 76.6989 32.0818 77.2289 31.5629C79.0803 29.5745 79.7172 27.2567 79.14 24.6095C79.3677 24.2692 79.7317 24.0873 80.2321 24.0641C84.2412 23.4206 88.2454 22.7389 92.2451 22.019C93.8485 21.602 95.3956 21.1019 96.8863 20.5192C100.681 19.4879 104.139 17.8063 107.261 15.4746C107.635 15.0058 107.908 14.5059 108.08 13.9748L108.081 13.9747Z" fill="#FDBE74"/>
<path d="M108.081 13.9747C107.908 14.5058 107.635 15.0056 107.261 15.4744C104.139 17.8061 100.681 19.4877 96.8867 20.5191C96.7254 20.3416 96.5435 20.1597 96.3407 19.9737C97.0988 19.5159 97.827 19.0616 98.5248 18.6103C101.623 17.2472 104.444 15.4293 106.988 13.1567C107.469 13.3026 107.833 13.5752 108.081 13.9747Z" fill="#F59458"/>
<path d="M98.5238 18.6115C97.826 19.0628 97.0979 19.5171 96.3397 19.9749C96.5426 20.1608 96.7244 20.3427 96.8857 20.5203C95.395 21.103 93.8477 21.6031 92.2445 22.02C88.2448 22.7399 84.2406 23.4216 80.2315 24.0651C79.7311 24.0883 79.3672 24.2702 79.1395 24.6105C78.6988 24.0771 78.2437 23.5317 77.7744 22.9744C80.1013 22.7974 82.3767 22.5247 84.5998 22.1564C89.3724 21.476 94.0139 20.2945 98.5238 18.6115Z" fill="#F59458"/>
<path d="M112.449 25.6997C136.51 29.792 154.485 42.4264 166.371 63.6026C178.056 87.6394 178.83 112 168.692 136.683C165.406 136.975 162.129 137.339 158.863 137.774C159.743 136.349 160.061 134.804 159.818 133.138C158.843 128.878 157.615 124.697 156.133 120.595H155.314C156.54 119.964 157.04 118.964 156.815 117.595C152.758 105.893 148.754 94.1676 144.802 82.4202C143.401 78.2183 141.581 74.2189 139.342 70.4221C137.814 68.6232 136.04 67.1234 134.018 65.9227C126.685 62.2605 119.222 58.8973 111.63 55.8333C110.898 55.3043 110.261 54.7134 109.719 54.0609C110.982 52.202 112.21 50.2933 113.405 48.3345C113.727 47.1372 114.091 45.9557 114.497 44.7896C114.72 43.2855 114.675 41.831 114.36 40.4266C114.385 39.7034 114.203 39.0673 113.814 38.5179C112.802 34.3197 112.347 30.0477 112.449 25.7017L112.449 25.6997Z" fill="#F3EFF4"/>
<path d="M111.357 28.6987C110.12 28.612 108.937 28.7028 107.808 28.9714C106.538 29.1072 105.264 29.198 103.986 29.2441C103.65 29.0243 103.377 28.7516 103.167 28.4261V26.5173C105.17 26.3806 107.172 26.3351 109.173 26.3809C110.159 26.911 111.069 27.5472 111.903 28.2897C111.755 28.4852 111.573 28.6215 111.357 28.6987Z" fill="#351F3B"/>
<path d="M67.6735 27.3348C68.2627 29.6924 69.0818 31.9646 70.1307 34.1518C67.653 35.3756 66.6974 37.3751 67.264 40.151C67.9326 42.9096 69.5252 44.955 72.0418 46.2863C73.5964 46.391 75.1433 46.391 76.6831 46.2863C77.5343 47.6674 78.3534 49.0762 79.1402 50.5129C78.3501 50.8898 77.6676 51.4351 77.0926 52.149C76.3418 53.1939 75.6592 54.2847 75.0449 55.4211C74.0874 55.7382 73.1772 56.1017 72.3147 56.5119C67.4382 58.3099 62.6147 60.2643 57.8445 62.3746C53.9156 63.8506 50.5026 66.0776 47.6063 69.0555C44.9931 73.3697 43.1277 78.0052 42.0094 82.9623H41.7364C41.4068 80.919 40.9064 78.9195 40.2348 76.9631C40.1384 76.2399 39.8198 75.6946 39.2792 75.327C38.7509 75.5042 38.2049 75.5951 37.641 75.5997C38.299 78.0266 38.845 80.4809 39.2792 82.9623V83.7803C37.7295 83.7351 36.1824 83.7806 34.6379 83.9166C33.2684 85.9301 31.9487 87.9753 30.6792 90.0519C30.1583 90.7898 29.9309 91.6078 29.9967 92.5061C29.8156 93.4073 29.3605 94.271 28.6315 95.0966C28.7528 95.5771 28.8893 95.5315 29.0411 94.9603C29.3957 95.0873 29.8053 95.0873 30.2697 94.9603C30.2099 96.0467 30.2099 97.0921 30.2697 98.096C30.0046 98.4243 29.7315 98.5606 29.4506 98.505C30.0455 99.1095 30.0455 99.6549 29.4506 100.141C29.7261 100.915 30.2721 101.278 31.0888 101.232C31.0423 101.592 31.1333 101.911 31.3618 102.186C31.2709 102.232 31.1797 102.277 31.0888 102.323C30.8837 102.084 30.7472 101.811 30.6792 101.505C30.6001 101.926 30.4182 102.289 30.1332 102.595C29.9511 103.05 29.9511 103.504 30.1332 103.959C30.4262 103.746 30.7448 103.792 31.0888 104.095C30.9979 104.186 30.9067 104.277 30.8158 104.368C31.1671 104.752 31.4858 105.161 31.7713 105.595C31.8945 104.932 32.1222 104.887 32.4539 105.458C32.1579 106.056 32.34 106.51 32.9999 106.822C32.2341 107.369 32.1432 108.096 32.7269 109.003C32.4916 109.749 32.2641 109.794 32.0443 109.14C31.6656 109.631 31.2561 109.813 30.8157 109.685C31.2466 109.903 31.7014 110.039 32.1808 110.094C31.5439 110.367 31.0888 110.821 30.8157 111.458C31.1264 111.93 31.263 112.43 31.2253 112.957C30.5195 112.58 29.9735 112.762 29.5871 113.503C29.4553 113.244 29.4099 112.971 29.4506 112.685C29.0072 112.646 28.6889 112.828 28.495 113.23C28.3796 112.833 28.1521 112.697 27.8125 112.821C28.2731 113.343 28.4096 113.933 28.222 114.593C28.026 114.334 27.7985 114.289 27.5395 114.457C28.2228 114.944 28.2228 115.398 27.5395 115.82C26.9749 116.008 26.4288 115.962 25.9013 115.684C25.5748 115.779 25.5748 115.915 25.9013 116.093C24.7175 116.078 23.5342 115.942 22.352 115.684C21.785 115.737 21.2389 115.873 20.7139 116.093C22.2376 116.134 23.6937 116.361 25.0823 116.775C18.5177 116.223 11.9651 115.542 5.42481 114.73C3.84642 114.638 2.39044 114.32 1.05642 113.775C1.44096 113.622 1.85051 113.531 2.28502 113.503C5.7813 113.956 9.28489 114.32 12.7963 114.593C8.67023 94.5292 11.8099 75.7151 22.2156 58.1484C33.0162 41.5462 48.169 31.2742 67.6725 27.3363L67.6735 27.3348Z" fill="#F3F0F4"/>
<path d="M107.809 28.9726C108.938 28.704 110.121 28.6132 111.358 28.6999C111.12 28.9794 110.801 29.1613 110.403 29.2453C109.555 29.0088 108.69 28.9177 107.809 28.9726Z" fill="#653334"/>
<path d="M106.443 31.4266C107.054 31.3461 107.6 31.4372 108.081 31.6993C107.396 31.5777 106.85 31.7593 106.443 32.2447C105.512 32.9007 104.784 33.7187 104.259 34.6988C104.241 34.301 104.332 33.9375 104.532 33.6081C104.982 32.7055 105.619 31.9782 106.443 31.4266Z" fill="#67352D"/>
<path d="M108.08 31.6978C109.526 32.3157 110.027 33.4064 109.582 34.9699C108.905 35.4646 108.131 35.6462 107.261 35.5153C106.923 34.7122 106.923 33.8942 107.261 33.0611C107.257 32.5114 106.984 32.2387 106.442 32.2431C106.849 31.7577 107.395 31.5762 108.08 31.6978Z" fill="#291A26"/>
<path d="M112.177 25.6997H112.45C112.348 30.0457 112.803 34.3177 113.815 38.5159C113.325 38.1632 112.87 37.7542 112.45 37.2888C111.636 37.1529 110.817 37.1074 109.993 37.1524C110.023 36.9842 110.114 36.8478 110.266 36.7434C109.443 35.916 108.442 35.5978 107.263 35.789V35.5163C108.132 35.6472 108.906 35.4656 109.584 34.9709C110.029 33.4074 109.528 32.3166 108.082 31.6988C107.6 31.4368 107.054 31.3456 106.444 31.4261C106.027 30.908 105.754 30.4082 105.625 29.9264C104.928 29.9258 104.382 29.6984 103.987 29.2447C105.265 29.1986 106.539 29.1078 107.809 28.972C108.69 28.9171 109.555 29.0082 110.403 29.2447C110.801 29.1607 111.12 28.9788 111.358 28.6993C111.574 28.6221 111.756 28.4858 111.904 28.2903C111.07 27.5477 110.16 26.9116 109.174 26.3815C107.173 26.3357 105.171 26.3812 103.168 26.5179V28.4266H102.895C102.727 27.7425 102.545 27.0607 102.349 26.3815C102.9 26.2588 103.4 26.0316 103.85 25.6998C103.941 25.7906 104.032 25.8817 104.123 25.9725C105.852 25.7906 107.582 25.609 109.311 25.4271C110.008 25.6232 110.327 26.0777 110.266 26.7905C110.627 26.8369 110.946 26.7461 111.222 26.5179C111.282 26.91 111.418 27.2734 111.631 27.6086C111.722 27.5631 111.813 27.5178 111.904 27.4723C112.156 26.9157 112.247 26.3247 112.177 25.6997Z" fill="#FDBF77"/>
<path d="M106.443 32.2455C106.985 32.2411 107.258 32.5138 107.262 33.0635C106.924 33.8966 106.924 34.7146 107.262 35.5177V35.7904C106.281 36.0322 105.28 36.3049 104.259 36.6084V34.6996C104.784 33.7195 105.512 32.9015 106.443 32.2455Z" fill="#F2ECE9"/>
<path d="M100.709 32.5167C100.604 34.2103 100.74 35.9372 101.119 37.6977C101.97 39.8228 103.062 41.8224 104.395 43.6969C105.073 45.0519 104.936 46.2789 103.985 47.3782C102.713 47.4243 101.439 47.379 100.163 47.2419C99.4377 47.0346 99.1646 46.6256 99.344 46.0148C100.398 45.8389 101.445 45.8842 102.484 46.1511C103.285 45.8615 103.604 45.2706 103.439 44.3787C103.394 43.9697 103.349 43.5606 103.303 43.1516C101.926 41.3091 100.833 39.3094 100.027 37.1524C99.8447 35.9709 99.8447 34.7891 100.027 33.6076C100.193 33.1805 100.42 32.8166 100.709 32.5167Z" fill="#F59458"/>
<path d="M105.078 48.3335C104.761 49.3716 104.215 50.417 103.44 51.4692C102.439 52.3349 101.347 52.6532 100.163 52.4236C101.97 52.2545 103.245 51.3454 103.986 49.6968C104.233 49.5035 104.324 49.2308 104.259 48.8788C104.475 48.6331 104.747 48.4513 105.078 48.3335Z" fill="#63241C"/>
<path d="M104.258 48.8785C104.322 49.2305 104.232 49.5032 103.985 49.6966C104.021 49.4951 103.975 49.3132 103.848 49.1512C103.257 49.4869 102.665 49.7596 102.074 49.9693C99.5476 50.4124 96.9995 50.5943 94.4291 50.5146H93.337C93.064 50.4238 92.8819 50.242 92.791 49.9693C94.6464 50.3166 96.4666 50.3166 98.2513 49.9693C99.6165 49.7874 100.982 49.6058 102.347 49.4239C102.96 49.1635 103.597 48.9816 104.258 48.8785Z" fill="#A44630"/>
<path d="M102.075 49.9686C101.352 50.4074 100.533 50.6347 99.6178 50.6503C97.8393 50.8739 96.1103 50.8284 94.4303 50.514C97.0007 50.5936 99.549 50.4117 102.075 49.9686Z" fill="#F5D6C6"/>
<path d="M92.7925 49.9686C92.8834 50.2413 93.0655 50.4232 93.3385 50.514C93.905 51.3536 94.6332 51.9897 95.5227 52.4228C95.1243 52.4411 94.7604 52.3503 94.4306 52.1501C93.4974 51.8422 92.7239 51.2968 92.1099 50.514C92.0586 50.0883 92.286 49.9065 92.7925 49.9686Z" fill="#4B3136"/>
<path d="M103.986 49.6974C103.245 51.346 101.971 52.2552 100.164 52.4242C98.6243 52.7347 97.0773 52.7347 95.5226 52.4242C94.6331 51.9911 93.905 51.3549 93.3385 50.5154H94.4305C96.1104 50.8298 97.8393 50.8753 99.618 50.6517C100.533 50.6362 101.352 50.4088 102.075 49.97C102.667 49.7603 103.258 49.4876 103.85 49.152C103.977 49.3139 104.022 49.4959 103.986 49.6974Z" fill="#FCF6F3"/>
<path d="M105.078 48.3335C105.297 47.9558 105.479 48.0013 105.624 48.4698C105.047 49.2314 104.729 50.0947 104.668 51.0603C103.79 51.8669 103.108 52.8213 102.621 53.9235C100.62 54.7154 98.6177 54.7606 96.6139 54.0598C95.9472 53.2996 95.219 52.6634 94.4297 52.1511C94.7596 52.3512 95.1235 52.4421 95.5218 52.4238C97.0767 52.7343 98.6236 52.7343 100.163 52.4238C101.347 52.6534 102.439 52.3351 103.439 51.4694C104.215 50.4171 104.761 49.3716 105.077 48.3336L105.078 48.3335Z" fill="#F29267"/>
<path d="M79.1415 50.5137C79.8063 51.7448 80.671 52.8356 81.7352 53.7858C81.8704 54.3237 81.916 54.8691 81.8717 55.4219C81.5304 55.4428 81.303 55.6248 81.1892 55.9672C80.8389 57.0345 80.6115 58.1252 80.5066 59.2393V61.9661C80.5642 63.9134 80.8826 65.8222 81.4622 67.6925C81.5668 67.8441 81.7033 67.9349 81.8717 67.9652C82.0334 68.8353 82.352 69.6533 82.8273 70.4194C84.8173 73.0437 86.9103 75.589 89.1068 78.0545C90.1877 79.5771 91.052 81.2131 91.7005 82.9628C91.4285 82.9862 91.2011 82.8952 91.0179 82.6901C89.563 78.989 86.8783 77.6707 82.9637 78.736C80.9417 79.3487 78.894 79.8485 76.8208 80.2358C75.5253 80.3402 74.6609 79.7948 74.2271 78.5997C73.3452 75.308 72.9813 71.9449 73.135 68.5103C73.0348 65.3853 73.3078 62.2947 73.954 59.239C73.918 58.6661 73.645 58.2571 73.135 58.012C73.2259 57.7393 73.3171 57.4666 73.408 57.1939C73.0028 57.0134 72.6389 56.7859 72.3159 56.5122C73.1784 56.1021 74.0886 55.7386 75.0461 55.4215C75.6604 54.2849 76.3429 53.1942 77.0937 52.1493C77.6687 51.4355 78.3512 50.8901 79.1414 50.5132L79.1415 50.5137Z" fill="#178896"/>
<path d="M72.3161 56.5144C72.6391 56.7881 73.003 57.0156 73.4082 57.1961C73.3173 57.4688 73.2261 57.7415 73.1352 58.0142C73.6452 58.2593 73.9182 58.6683 73.9542 59.2412C73.308 62.2969 73.035 65.3875 73.1352 68.5125C72.9815 71.9471 73.3454 75.3102 74.2273 78.6018C73.9212 79.0351 73.9668 79.4897 74.3638 79.9653C75.0234 81.0342 75.979 81.5796 77.2305 81.6014C79.4859 81.0173 81.7611 80.5175 84.056 80.1016C86.4654 79.5413 88.5131 80.1322 90.1989 81.8741C90.7321 82.6253 91.0507 83.4434 91.1544 84.3283V90.3274C91.348 90.5739 91.6211 90.6647 91.9735 90.6001V128.232C89.8464 128.484 87.7534 128.893 85.694 129.459C84.8272 129.593 84.0993 129.912 83.5099 130.413H82.4178V131.504C82.8161 131.522 83.1801 131.432 83.5099 131.231C86.3189 130.779 89.1402 130.415 91.9735 130.141V128.504H92.2466C92.4554 129.212 92.5466 129.94 92.5196 130.686H93.3387V131.504V164.499C88.194 164.445 83.0519 164.536 77.913 164.772C76.8859 164.748 75.9303 164.567 75.0462 164.226C69.7332 146.352 64.5005 128.446 59.3475 110.507C59.2928 110.01 59.0651 109.647 58.6649 109.416C58.7479 109.239 58.8388 109.057 58.9379 108.87C56.9432 101.719 55.0776 94.5388 53.341 87.3283C53.2839 88.9865 53.1474 90.6225 52.9315 92.2366C52.5364 92.5425 52.2634 92.9515 52.1124 93.4636C51.2259 93.8615 50.3159 94.1797 49.3822 94.4181C48.6964 94.2834 48.0594 94.0107 47.4711 93.6C47.2292 93.375 47.1383 93.1023 47.1981 92.782C47.3826 90.7845 46.4726 89.6937 44.4679 89.5098C44.9178 88.2767 45.0543 87.0044 44.8774 85.6922C44.4654 85.0325 43.8741 84.7598 43.1028 84.8741C42.1508 84.6319 41.7868 83.9958 42.0107 82.9653C43.129 78.0082 44.9947 73.3725 47.6076 69.0585C50.5041 66.0808 53.9168 63.8537 57.8458 62.3777C62.616 60.2674 67.4395 58.313 72.316 56.5149L72.3161 56.5144Z" fill="#158697"/>
<path d="M81.8701 55.4217C81.942 56.5397 81.851 57.6304 81.5971 58.6938C81.1707 58.7573 80.8067 58.9392 80.505 59.2391C80.6099 58.1249 80.8373 57.0342 81.1876 55.967C81.3014 55.6246 81.5288 55.4427 81.8701 55.4217Z" fill="#2F5661"/>
<path d="M100.709 32.5193C100.604 34.2124 100.74 35.9387 101.119 37.6985C101.97 39.8235 103.063 41.8232 104.395 43.6977C105.073 45.0527 104.936 46.2797 103.986 47.379C103.665 47.3906 103.344 47.3964 103.023 47.3964C102.071 47.3964 101.118 47.3453 100.165 47.2428H100.163C100.163 47.2429 100.163 47.2428 100.163 47.2428C99.438 47.0355 99.1649 46.6264 99.3443 46.0156C99.7634 45.9457 100.181 45.9107 100.598 45.9107C101.23 45.9107 101.858 45.9911 102.484 46.1519C103.285 45.8623 103.604 45.2714 103.44 44.3795C103.394 43.9704 103.349 43.5614 103.303 43.1524C101.926 41.3098 100.834 39.3102 100.027 37.1532C99.8448 35.9717 99.8448 34.7899 100.027 33.6083C100.193 33.1821 100.42 32.8189 100.708 32.5192L100.709 32.5193ZM105.349 48.0805C105.452 48.0805 105.543 48.2102 105.624 48.4697C105.047 49.2312 104.728 50.0946 104.668 51.0602C103.79 51.8668 103.108 52.8212 102.62 53.9234C101.559 54.3434 100.498 54.5533 99.4357 54.5533C98.4955 54.5533 97.5549 54.3888 96.6141 54.0597C95.9474 53.2994 95.2192 52.6633 94.43 52.1509C93.4967 51.843 92.7233 51.2976 92.1093 50.5148C92.0645 50.1434 92.232 49.9576 92.6119 49.9576C92.6673 49.9576 92.7273 49.9615 92.7918 49.9694C93.7196 50.1431 94.6385 50.23 95.5487 50.23C96.4587 50.23 97.36 50.1431 98.2525 49.9694C99.6176 49.7876 100.983 49.606 102.348 49.4241C102.961 49.1636 103.598 48.9817 104.259 48.8787C104.475 48.633 104.748 48.4511 105.078 48.3333C105.176 48.1648 105.266 48.0805 105.349 48.0805L105.349 48.0805ZM90.2667 26.2291C89.6495 26.2291 89.035 26.2802 88.4233 26.3822C88.7384 26.6314 88.6928 26.8586 88.2868 27.0639C88.1315 26.8191 87.9754 26.6968 87.8187 26.6968C87.6119 26.6968 87.4038 26.9101 87.1947 27.3366C87.1038 27.2458 87.0126 27.1547 86.9217 27.0639C86.6304 27.2523 86.3117 27.3886 85.9661 27.473C86.346 27.8442 86.7181 28.0299 87.0823 28.0299C87.3987 28.0299 87.7092 27.8897 88.0138 27.6093C88.3117 27.8024 88.635 27.8991 88.9838 27.8991C89.0681 27.8991 89.1538 27.8934 89.241 27.8821H89.2423C89.2042 28.3249 89.3863 28.6428 89.7884 28.8364C88.8199 29.263 87.8426 29.4763 86.8566 29.4763C86.1097 29.4763 85.3578 29.3539 84.6009 29.109C84.9649 29.0183 85.3291 28.9272 85.693 28.8364C85.2017 28.5988 84.7524 28.48 84.3453 28.48C83.7486 28.48 83.2422 28.7351 82.8263 29.2454C82.5795 29.1148 82.3625 29.0495 82.1753 29.0495C81.6958 29.0495 81.4122 29.4784 81.3247 30.3362C80.7786 30.1543 80.2326 29.9727 79.6865 29.7908C79.6712 30.4851 79.6067 30.8324 79.493 30.8324C79.3792 30.8324 79.2162 30.4851 79.004 29.7908C78.9248 30.4594 78.743 31.0956 78.4579 31.6996C78.3391 31.5424 78.2087 31.4638 78.0668 31.4638C77.9745 31.4638 77.8774 31.497 77.7753 31.5632C77.0969 31.9687 76.5053 32.4688 76.0007 33.063C75.8647 33.9675 75.8191 34.8764 75.8642 35.7898C75.9524 36.8058 75.8612 37.8057 75.5912 38.7894C74.9168 37.3054 74.0068 35.9872 72.861 34.8353C72.1521 34.3675 71.384 34.1334 70.5563 34.1334C70.4162 34.1334 70.2743 34.1402 70.1308 34.1536C67.6531 35.3774 66.6974 37.3769 67.264 40.1528C67.9326 42.9114 69.5252 44.9567 72.0418 46.2881C72.8191 46.3404 73.5945 46.3666 74.368 46.3666C75.1416 46.3666 75.9133 46.3404 76.6832 46.2881C77.5345 47.6692 78.3536 49.078 79.1404 50.5146C79.8052 51.7458 80.6698 52.8365 81.7341 53.7867C81.8692 54.3247 81.9148 54.8701 81.8706 55.4228C81.9424 56.5408 81.8515 57.6316 81.5976 58.695C81.9091 59.5512 81.9547 60.46 81.7341 61.4218C81.3709 61.7168 80.9614 61.8987 80.5055 61.9671C80.5631 63.9143 80.8814 65.8231 81.4611 67.6935C81.5656 67.8451 81.7021 67.9359 81.8706 67.9662C84.8593 71.4978 88.361 73.2633 92.3759 73.2633C94.062 73.2633 95.8387 72.9519 97.7057 72.3291C96.1636 70.9255 94.6619 69.4713 93.2007 67.9661C90.6393 64.7276 88.1365 61.4555 85.6927 58.1495C85.0479 57.4154 84.4106 56.6882 83.7816 55.968C83.6588 55.7086 83.4786 55.4826 83.2406 55.2904H83.2419C85.8321 56.9506 88.5603 58.4942 91.4262 59.922C93.8429 61.0995 96.3061 61.6883 98.8162 61.6883C100.518 61.6883 102.241 61.4177 103.985 60.8764C103.985 60.6945 104.076 60.6037 104.258 60.6037C104.589 60.4859 104.862 60.304 105.077 60.0583C106.003 59.7532 106.776 59.2078 107.398 58.4222C108.276 57.3844 108.867 56.2028 109.173 54.8773C109.419 54.6619 109.601 54.3892 109.719 54.0593C110.982 52.2004 112.21 50.2917 113.405 48.3329C113.727 47.1356 114.091 45.954 114.497 44.788C114.72 43.2839 114.675 41.8294 114.36 40.425C114.385 39.7018 114.203 39.0657 113.814 38.5162C113.324 38.1636 112.869 37.7546 112.449 37.2892C111.837 37.1871 111.223 37.136 110.606 37.136C110.401 37.136 110.197 37.1416 109.992 37.1528C110.022 36.9846 110.113 36.8482 110.265 36.7438C109.596 36.0717 108.81 35.7356 107.907 35.7356C107.698 35.7356 107.483 35.7535 107.262 35.7894C106.28 36.0313 105.279 36.3039 104.258 36.6074V34.6987C104.24 34.3008 104.331 33.9373 104.531 33.6079C104.981 32.7053 105.618 31.9781 106.443 31.4264C106.026 30.9083 105.753 30.4085 105.624 29.9267C104.927 29.9261 104.381 29.6987 103.985 29.245C103.65 29.0252 103.377 28.7525 103.166 28.4269H102.893C102.556 28.3667 102.283 28.1848 102.074 27.8815C101.912 28.0226 101.744 28.0931 101.571 28.0931C101.467 28.0931 101.362 28.068 101.255 28.0179C101.346 27.7452 101.437 27.4725 101.528 27.1998C101.301 27.1089 101.073 27.0634 100.846 27.0634C100.618 27.0634 100.391 27.1089 100.163 27.1998C100.481 27.7092 100.39 28.2093 99.8901 28.6996C99.6371 28.8714 99.3855 28.9573 99.1353 28.9573C98.885 28.9573 98.6361 28.8714 98.3885 28.6996C98.1419 29.0271 97.8236 29.2545 97.4329 29.3813C96.601 30.8748 95.6454 32.1019 94.5661 33.0626C94.4752 32.79 94.384 32.5173 94.2931 32.2446C94.0201 32.3354 93.7471 32.4265 93.474 32.5173C93.298 32.2047 93.0705 31.9321 92.7915 31.6992C92.9736 31.6084 93.1554 31.5173 93.3375 31.4265C93.1276 30.6057 92.8999 29.7876 92.655 28.9724C92.0057 28.5876 91.3232 28.2696 90.6073 28.018C90.8593 27.4615 90.9502 26.8706 90.8803 26.2456C90.6754 26.2344 90.4708 26.2287 90.2665 26.2287L90.2667 26.2291Z" fill="#FDBF77"/>
<path d="M71.7678 39.0625C73.4398 39.0057 73.5763 39.4603 72.1773 40.4259C71.9952 41.062 71.9952 41.6985 72.1773 42.3346C72.3138 42.6529 72.5412 42.88 72.8599 43.0163C72.1181 43.298 71.6174 43.0708 71.3583 42.3346C71.0836 41.1615 71.2201 40.0707 71.7678 39.0625Z" fill="#F59458"/>
<path d="M88.424 35.7896C88.377 36.8375 88.4683 37.9282 88.6971 39.0619C87.3852 39.3311 86.0201 39.4221 84.6018 39.3346V38.5165C84.7809 37.2112 85.5087 36.3476 86.786 35.926C87.3246 35.7911 87.8706 35.7454 88.424 35.7896Z" fill="#F7F4F4"/>
<path d="M69.5849 36.6084C72.26 36.678 72.3508 36.9962 69.8579 37.5629C69.1366 38.2653 68.727 39.1289 68.6293 40.1534C68.314 38.7829 68.6326 37.6013 69.5849 36.6084Z" fill="#F59458"/>
<path d="M89.5155 35.2445H90.0615C91.1539 36.3025 91.4269 37.5752 90.8806 39.0622C90.1439 39.4232 89.4161 39.4232 88.6964 39.0622C88.4676 37.9286 88.3764 36.8379 88.4234 35.7898C88.1206 35.5744 87.7566 35.438 87.3313 35.3808C88.0537 35.2453 88.7819 35.1998 89.5155 35.2445Z" fill="#2F1D2C"/>
<path d="M89.5155 35.2445C88.7819 35.1998 88.0537 35.2453 87.3313 35.3809C87.7567 35.4381 88.1206 35.5744 88.4234 35.7899C87.87 35.7457 87.3239 35.7913 86.7853 35.9262C85.508 36.3478 84.7802 37.2114 84.6011 38.5167C84.404 38.6307 84.2675 38.8124 84.1916 39.0621C84.0095 38.6075 84.0095 38.1533 84.1916 37.6987C84.5954 36.7912 85.1867 36.0642 85.9662 35.5172C87.138 34.9361 88.321 34.8451 89.5155 35.2445Z" fill="#6B423F"/>
<path d="M91.6984 31.9716C91.6107 32.3937 91.3377 32.5756 90.8793 32.517V33.3351C89.3111 33.2208 87.8549 33.539 86.5109 34.2894C87.7693 34.4996 88.9522 34.8179 90.0602 35.2438H89.5142C88.3197 34.8444 87.1367 34.9354 85.9649 35.5165C86.0203 35.0012 85.8385 34.5921 85.4188 34.2895C84.7882 34.1539 84.1512 34.1086 83.5077 34.1531C84.125 33.6745 84.8531 33.3563 85.6919 33.1987C87.7251 32.8769 89.7275 32.4679 91.6984 31.9716Z" fill="#FDBF77"/>
<path d="M91.6984 31.9716C89.7274 32.4679 87.7251 32.8769 85.692 33.1987C84.8533 33.3563 84.1251 33.6745 83.5079 34.1531C82.8316 34.2755 82.2856 34.0939 81.8698 33.6077C82.9337 32.2266 84.2076 31.0903 85.6922 30.1992C87.9053 29.9233 90.0895 29.5143 92.2447 28.9722C92.3504 30.0476 92.1683 31.0475 91.6987 31.9717L91.6984 31.9716Z" fill="#371C37"/>
<path d="M81.5986 58.6946C81.9102 59.5508 81.9558 60.4596 81.7351 61.4214C81.372 61.7164 80.9625 61.8983 80.5065 61.9667V59.2399C80.8082 58.94 81.1722 58.7581 81.5986 58.6946Z" fill="#F59458"/>
<path d="M103.986 60.8774C104.032 61.9719 103.986 63.0626 103.85 64.1495C103.645 63.9788 103.417 63.8424 103.167 63.7404C99.1641 63.8784 95.342 63.1515 91.7003 61.559C90.5097 60.874 89.3266 60.1923 88.151 59.5139C87.5722 59.2545 87.1173 58.8455 86.7859 58.2868C86.4328 58.1532 86.0686 58.1076 85.6938 58.1504C85.0489 57.4163 84.4117 56.6891 83.7826 55.969C83.659 55.7077 83.4771 55.4803 83.2366 55.2873C85.8287 56.949 88.5588 58.4939 91.4271 59.923C95.4822 61.8988 99.6688 62.217 103.986 60.8774Z" fill="#F59458"/>
<path d="M85.6928 58.1495C86.0677 58.1067 86.4319 58.1522 86.7849 58.2859C87.1164 58.8445 87.5712 59.2536 88.15 59.5129C88.6327 59.9031 88.8148 60.3574 88.6961 60.8764C88.9352 61.0812 89.2083 61.2175 89.5151 61.2854C89.2326 61.6963 89.2781 62.1053 89.6516 62.5125C89.7426 62.3306 89.8338 62.149 89.9247 61.9671C90.3173 62.2992 90.7724 62.4811 91.2897 62.5125C91.7924 62.342 92.2928 62.2965 92.7914 62.3761C92.4817 62.6531 92.5726 62.835 93.0644 62.9215C92.9396 63.0344 92.8484 63.1707 92.7914 63.3305C93.1561 64.1409 93.5656 64.2317 94.0199 63.6032C94.3386 64.2849 94.839 64.7848 95.5216 65.103C95.2619 65.2987 95.2166 65.5258 95.3851 65.7847C95.8528 66.1872 96.3534 66.5509 96.8867 66.8754C96.5167 67.1958 96.5623 67.4685 97.0232 67.6934C97.2728 67.3788 97.5002 67.4243 97.7058 67.8298C97.5236 67.9206 97.3418 68.0117 97.1597 68.1025C98.0833 68.4788 98.5838 69.1605 98.6613 70.1476C99.0946 69.813 99.4588 69.9038 99.7534 70.4203C99.8443 70.1476 99.9355 69.8749 100.026 69.6022C100.584 69.8539 101.175 69.9447 101.801 69.8749C101.528 70.2384 101.255 70.6022 100.982 70.9657C99.9579 71.5674 98.8658 72.022 97.7058 72.3291C96.1638 70.9255 94.6621 69.4714 93.2009 67.9661C90.6394 64.7276 88.1366 61.4555 85.6928 58.1495Z" fill="#F59458"/>
<path d="M88.1499 59.5135C89.3255 60.1919 90.5085 60.8736 91.6992 61.5586C95.3406 63.1511 99.1631 63.878 103.166 63.74C103.416 63.842 103.644 63.9784 103.849 64.1491C103.985 63.0621 104.031 61.9714 103.985 60.877C103.985 60.6951 104.076 60.6043 104.258 60.6043C104.76 64.0921 103.941 67.1824 101.801 69.8756C101.175 69.9454 100.584 69.8546 100.026 69.6029C99.9355 69.8756 99.8443 70.1483 99.7534 70.4209C99.4588 69.9045 99.0946 69.8137 98.6613 70.1483C98.5838 69.1611 98.0833 68.4794 97.1597 68.1031C97.3418 68.0123 97.5237 67.9212 97.7057 67.8304C97.5002 67.425 97.2728 67.3794 97.0232 67.6941C96.5624 67.4691 96.5168 67.1964 96.8867 66.8761C96.3535 66.5516 95.8527 66.1878 95.3851 65.7853C95.2166 65.5265 95.2619 65.2994 95.5216 65.1036C94.839 64.7854 94.3386 64.2856 94.0199 63.6038C93.5656 64.2324 93.1561 64.1415 92.7914 63.3312C92.8484 63.1714 92.9396 63.035 93.0644 62.9221C92.5727 62.8357 92.4817 62.6538 92.7914 62.3768C92.2928 62.2971 91.7924 62.3427 91.2897 62.5131C90.7724 62.4817 90.3173 62.2999 89.9247 61.9677C89.8337 62.1496 89.7426 62.3312 89.6516 62.5131C89.2781 62.106 89.2326 61.6969 89.5151 61.286C89.2083 61.2182 88.9352 61.0818 88.6961 60.877C88.8148 60.3581 88.6326 59.9036 88.1499 59.5135Z" fill="#F59458"/>
<path d="M117.091 83.7563C117.982 83.7563 118.873 83.7584 119.763 83.7627H119.762C118.872 83.7584 117.982 83.7563 117.091 83.7563ZM123.913 84.5743C122.469 84.5743 121.024 84.5765 119.58 84.5807H119.579C121.023 84.5765 122.468 84.5743 123.913 84.5743ZM109.718 54.052C109.6 54.3819 109.418 54.6546 109.172 54.87C108.866 56.1956 108.275 57.3771 107.397 58.4149C106.775 59.2006 106.002 59.746 105.077 60.0511C104.861 60.2968 104.588 60.4786 104.258 60.5964C104.759 64.0842 103.94 67.1745 101.801 69.8677C101.528 70.2312 101.254 70.595 100.981 70.9584C100.618 71.5038 100.253 72.0492 99.8894 72.5946C100.009 73.0238 100.282 73.342 100.708 73.549C104.209 75.1592 107.849 76.3863 111.629 77.2302C111.744 78.0006 111.471 78.5912 110.81 79.0027C110.173 79.0936 109.536 79.1391 108.899 79.1391C108.262 79.1391 107.625 79.0936 106.988 79.0027C104.825 78.5249 102.641 78.207 100.435 78.0483C96.3755 78.102 93.8273 80.1016 92.7909 84.0475V84.3201H93.337C93.2433 83.7794 93.4254 83.4156 93.883 83.2294C93.8423 82.9425 93.8876 82.6698 94.0195 82.4114C95.6797 80.4156 97.8187 79.4157 100.436 79.4118C103.217 79.6512 105.993 79.9239 108.763 80.2298C109.733 80.2197 110.688 80.1289 111.629 79.9572C112.412 81.0792 112.776 82.3516 112.721 83.7749C111.879 83.7635 111.037 83.7578 110.195 83.7578C107.669 83.7578 105.144 83.8089 102.62 83.9112C101.825 84.2946 101.279 84.8852 100.982 85.6836C100.891 90.4576 100.982 95.1842 101.255 99.8632C101.681 100.538 102.227 101.083 102.893 101.499C102.857 101.701 102.903 101.883 103.029 102.045C107.256 105.731 111.124 109.821 114.633 114.316C113.644 114.54 112.643 114.677 111.629 114.725C112.659 114.835 113.66 115.062 114.633 115.406C114.927 116.014 115.109 116.651 115.179 117.315C115.252 117.302 115.322 117.295 115.388 117.295C115.641 117.295 115.844 117.393 115.998 117.588C116.777 117.78 117.505 118.053 118.182 118.406C118.981 118.423 119.71 118.605 120.366 118.951C123.266 119.718 125.814 121.127 128.011 123.178C128.208 123.278 128.414 123.328 128.629 123.328C128.695 123.328 128.762 123.324 128.83 123.314C129.317 120.679 129.818 118.043 130.332 115.406C131.262 118.06 132.218 120.696 133.198 123.314C136.256 123.506 139.305 123.778 142.344 124.132C143.58 124.094 144.809 124.003 146.03 123.859C146.619 123.612 147.256 123.431 147.941 123.314C148.459 122.949 149.053 122.767 149.724 122.767C149.767 122.767 149.81 122.767 149.853 122.769C151.267 122.176 152.723 121.63 154.221 121.133C154.498 120.813 154.862 120.631 155.313 120.587C156.539 119.956 157.04 118.956 156.815 117.588C152.757 105.886 148.753 94.16 144.802 82.4126C143.401 78.2108 141.58 74.2113 139.341 70.4145C137.814 68.6156 136.039 67.1158 134.017 65.9152C126.684 62.2529 119.222 58.8898 111.63 55.8258C110.898 55.2968 110.261 54.7059 109.719 54.0533L109.718 54.052Z" fill="#166277"/>
<path d="M81.8701 67.9656C86.114 72.9803 91.3923 74.4344 97.7055 72.3286C98.8656 72.0215 99.9576 71.567 100.982 70.9651C100.618 71.5105 100.253 72.0559 99.8896 72.6012C97.8859 74.5577 96.0204 76.6481 94.2926 78.8729C93.5355 80.2944 92.853 81.7486 92.245 83.2359C92.3656 83.5738 92.5478 83.8465 92.791 84.054V84.3266H91.4259C91.6446 83.9061 91.7355 83.4518 91.6989 82.9632C91.0505 81.2137 90.1861 79.5776 89.1052 78.0549C86.9088 75.5893 84.8157 73.0441 82.8258 70.4198C82.3504 69.6538 82.0318 68.8357 81.8701 67.9656Z" fill="#F7FAF7"/>
<path d="M99.8894 72.6024C100.009 73.0316 100.282 73.3498 100.709 73.5568C104.209 75.167 107.849 76.3942 111.629 77.2381C111.744 78.0084 111.471 78.599 110.81 79.0105C109.536 79.1924 108.262 79.1924 106.988 79.0105C104.825 78.5328 102.641 78.2148 100.435 78.0562C96.3754 78.1099 93.8272 80.1095 92.7909 84.0553C92.5476 83.8478 92.3655 83.5751 92.2449 83.2373C92.8529 81.75 93.5354 80.2959 94.2925 78.8743C96.0202 76.6494 97.8857 74.5588 99.8894 72.6024Z" fill="#148694"/>
<path d="M39.2803 75.3276C39.8209 75.6952 40.1395 76.2405 40.2359 76.9637C40.9075 78.9199 41.408 80.9196 41.7375 82.9629C41.853 83.5849 41.6709 84.0394 41.1915 84.3263C40.5597 81.8496 39.8771 79.3954 39.1438 76.9638C38.9587 76.3917 39.0043 75.8463 39.2803 75.3276Z" fill="#F3F0F4"/>
<path d="M74.2248 78.6005C74.6586 79.7957 75.5231 80.3411 76.8186 80.2366C78.8919 79.8494 80.9394 79.3496 82.9615 78.7369C86.876 77.6715 89.5608 78.9897 91.0157 82.691C91.1989 82.896 91.4263 82.9871 91.6982 82.9636C91.7348 83.4523 91.6439 83.9066 91.4252 84.3271H91.1522C91.0484 83.4422 90.7298 82.6241 90.1966 81.8729C88.5107 80.131 86.463 79.5401 84.0537 80.1004C81.7587 80.5163 79.4835 81.0161 77.2283 81.6002C75.9767 81.5784 75.0211 81.033 74.3615 79.9641C73.9646 79.4885 73.9188 79.0338 74.2248 78.6005Z" fill="#165B74"/>
<path d="M39.2803 75.3276C39.0043 75.8463 38.9587 76.3916 39.1438 76.9637C39.8771 79.3953 40.5597 81.8493 41.1915 84.3263C40.8011 84.3478 40.4368 84.257 40.0994 84.0536C39.9219 83.5944 39.6489 83.2309 39.2803 82.9629C38.8462 80.4815 38.3002 78.0272 37.6422 75.6003C38.206 75.5957 38.752 75.5049 39.2803 75.3276Z" fill="#F3F0F4"/>
<path d="M112.723 83.7824C109.354 83.7369 105.987 83.7824 102.621 83.9187C101.827 84.3021 101.281 84.8928 100.983 85.6912C100.893 90.4652 100.984 95.1917 101.256 99.8707C101.682 100.545 102.228 101.09 102.894 101.507C102.858 101.708 102.904 101.89 103.031 102.052C107.258 105.739 111.125 109.829 114.634 114.323C113.645 114.548 112.644 114.684 111.631 114.732C112.661 114.843 113.662 115.07 114.634 115.414C114.928 116.022 115.11 116.658 115.18 117.323C115.533 117.258 115.806 117.349 115.999 117.595C115.041 117.443 114.085 117.262 113.133 117.05C112.018 117.265 110.971 117.674 109.993 118.277C107.426 120.021 104.787 121.657 102.075 123.185C101.677 124.023 101.768 124.795 102.348 125.503C101.313 125.899 100.221 126.217 99.0719 126.458C98.9201 126.562 98.8291 126.698 98.7989 126.867C98.4385 127.26 97.9837 127.441 97.4338 127.412C96.7351 127.33 96.0978 127.421 95.5226 127.685H93.0654V125.23V123.049C93.2626 123.163 93.3991 123.345 93.475 123.594C93.6571 113.141 93.6571 102.689 93.475 92.2346C93.3704 92.083 93.2339 91.9921 93.0654 91.9619C93.0547 91.455 93.2822 91.0915 93.748 90.8712C93.8845 88.3278 93.9298 85.7827 93.8845 83.2361C93.8438 82.9492 93.8891 82.6765 94.021 82.418C95.6812 80.4223 97.8202 79.4224 100.437 79.4185C103.219 79.6578 105.995 79.9305 108.764 80.2365C109.734 80.2264 110.69 80.1356 111.631 79.9638C112.413 81.0859 112.777 82.3583 112.723 83.7815L112.723 83.7824Z" fill="#168795"/>
<path d="M91.1527 84.33H91.4257H92.7908H93.0638V90.3292H91.1527L91.1527 84.33Z" fill="#F6B92D"/>
<path d="M36.5491 87.8767C37.5161 87.7914 38.4261 87.8824 39.2793 88.1494C37.4801 89.2175 35.7512 90.399 34.0918 91.6943C34.0009 91.6488 33.9097 91.6035 33.8188 91.558C34.7154 90.6295 35.5798 89.6751 36.4125 88.6948C36.5444 88.4363 36.5898 88.1635 36.5491 87.8767Z" fill="#EB773C"/>
<path d="M93.064 84.33H93.337C93.5095 86.5313 93.3275 88.6221 92.791 90.6017H91.9719C91.6195 90.6663 91.3464 90.5755 91.1529 90.329H93.064V84.33Z" fill="#978430"/>
<path d="M39.2803 82.974C39.6489 83.242 39.9219 83.6054 40.0994 84.0647C40.4368 84.2681 40.8011 84.3589 41.1915 84.3374C41.6709 84.0505 41.853 83.596 41.7375 82.9739H42.0106C41.7867 84.0044 42.1506 84.6405 43.1026 84.8827H42.0106V87.6095C40.1393 87.5211 38.319 87.6119 36.5502 87.8822C36.5909 88.169 36.5456 88.4417 36.4137 88.7002C35.581 89.6805 34.7166 90.6349 33.82 91.5634C33.9109 91.609 34.0021 91.6542 34.093 91.6997C35.7521 90.4045 37.4812 89.223 39.2805 88.1549C40.6134 88.0712 41.8876 88.2983 43.1029 88.8366C43.3666 89.7733 43.3666 90.7277 43.1029 91.6998C42.2789 91.6548 41.4598 91.7004 40.6457 91.8361C39.2063 92.6381 37.8411 93.5469 36.5504 94.5629C38.129 93.6873 39.7671 92.824 41.4648 91.9724C42.5793 92.1311 43.1709 92.7673 43.2394 93.8812C43.4216 94.5174 43.4216 95.1538 43.2394 95.79C41.1328 96.2541 39.2672 97.2085 37.6425 98.6532C38.8201 98.1089 40.0031 97.4727 41.1918 96.7444C42.193 96.5625 43.1939 96.5625 44.1951 96.7444C45.6632 97.0166 45.9818 97.789 45.1507 99.0622C44.6579 99.6965 44.0662 100.151 43.3761 100.426C42.797 100.378 42.2509 100.469 41.7379 100.698C41.2377 100.902 40.7826 101.175 40.3728 101.516C40.0272 101.677 39.6632 101.814 39.2807 101.925C39.2157 102.842 38.8518 102.842 38.1886 101.925C38.4169 101.586 38.326 101.268 37.9156 100.971C37.4463 101.666 37.0823 101.575 36.8235 100.698C36.6057 101.129 36.4691 101.583 36.414 102.062C36.1254 101.593 35.898 101.093 35.7315 100.562C35.8224 100.471 35.9136 100.38 36.0045 100.289C35.6588 100.205 35.3402 100.069 35.0489 99.8803C34.9705 100.532 34.834 101.168 34.6394 101.789C34.9124 101.971 35.1854 102.153 35.4584 102.334C35.2547 102.671 35.1638 103.035 35.1854 103.425H34.3663C34.4261 103.105 34.3352 102.832 34.0933 102.607C33.7818 103.131 33.7362 103.676 33.9568 104.243C34.0477 104.152 34.1389 104.061 34.2298 103.971C34.2006 105.058 34.519 106.013 35.1854 106.834C34.6066 107.249 34.5157 107.749 34.9124 108.333C34.5902 109.737 34.1807 111.101 33.6838 112.424C33.6046 112.003 33.4228 111.639 33.1377 111.333C32.951 111.683 32.9966 112.001 33.2742 112.287C32.9838 112.699 32.6198 112.745 32.1822 112.424C33.0236 111.04 33.5697 109.54 33.8203 107.924C32.8369 104.313 31.7904 100.723 30.6804 97.1532C30.5895 95.7898 30.4983 94.4265 30.4074 93.0631C30.3315 92.8133 30.195 92.6317 29.9979 92.5177C29.9321 91.6194 30.1595 90.8014 30.6805 90.0635C31.95 87.9867 33.2698 85.9415 34.6392 83.9282C36.1836 83.7921 37.731 83.7466 39.2804 83.7918L39.2803 82.974Z" fill="#FCC37B"/>
<path d="M58.6626 109.418C58.2009 111.717 57.6093 113.989 56.888 116.235C56.6914 116.659 56.3728 116.932 55.9324 117.053C55.0178 117.098 54.1078 117.052 53.2022 116.917C51.1677 116.406 49.1657 115.815 47.1959 115.144C47.0086 113.866 47.3269 112.685 48.1514 111.599C48.3906 110.454 48.6181 109.318 48.834 108.191C48.288 107.827 47.7419 107.464 47.1959 107.1C47.6499 107.028 48.0594 107.164 48.4245 107.509C48.742 107.022 48.9241 106.477 48.9705 105.873C49.24 102.687 49.4674 99.5063 49.6531 96.3289C49.3708 95.8004 49.5526 95.4366 50.1991 95.2381C50.9172 94.9987 51.6453 94.8168 52.3833 94.6928C52.5225 93.8641 52.7046 93.046 52.9294 92.2386C53.1453 90.6246 53.2818 88.9884 53.3389 87.3303C55.0756 94.5406 56.9412 101.721 58.9358 108.872C58.8367 109.059 58.7456 109.241 58.6626 109.418Z" fill="#176278"/>
<path d="M43.1004 84.8777C43.8717 84.7634 44.463 85.0361 44.875 85.6958C45.052 87.0079 44.9154 88.2802 44.4655 89.5135C46.4703 89.6975 47.3803 90.7882 47.1957 92.7856C46.8918 93.1799 46.8462 93.6344 47.0592 94.149C48.1608 95.2544 48.2973 96.4815 47.4687 97.8303C48.0737 99.9987 47.2546 100.953 45.0115 100.693V101.784C44.6208 101.435 44.4387 100.981 44.4655 100.421H43.3734C44.0636 100.146 44.6552 99.6916 45.148 99.0574C45.9791 97.7842 45.6605 97.0117 44.1924 96.7396C43.1913 96.5577 42.1904 96.5577 41.1891 96.7396C40.0004 97.4679 38.8174 98.1041 37.6399 98.6483C39.2646 97.2036 41.1301 96.2493 43.2368 95.7851C43.4189 95.149 43.4189 94.5125 43.2368 93.8763C43.1683 92.7624 42.5766 92.1263 41.4621 91.9676C39.7645 92.8191 38.1264 93.6824 36.5478 94.558C37.8386 93.542 39.2038 92.6331 40.643 91.8313C41.4572 91.6955 42.2763 91.65 43.1002 91.6949C43.3639 90.7228 43.3639 89.7684 43.1002 88.8317C41.885 88.2935 40.6108 88.0663 39.2778 88.15C38.4246 87.883 37.5146 87.7919 36.5476 87.8773C38.3165 87.607 40.1369 87.5162 42.008 87.6046V84.8778H43.1001L43.1004 84.8777Z" fill="#F5A167"/>
<path d="M43.3745 100.421H44.4666C44.4399 100.981 44.622 101.435 45.0127 101.784V102.875C45.0779 103.411 44.987 103.911 44.7396 104.375C44.1081 104.555 43.4712 104.691 42.8285 104.784C42.4645 103.42 42.1003 102.057 41.7364 100.693C42.2494 100.464 42.7955 100.373 43.3745 100.421Z" fill="#F59458"/>
<path d="M52.9312 92.2319C52.7065 93.0393 52.5244 93.8574 52.3852 94.6861C51.6472 94.8101 50.919 94.992 50.201 95.2314C49.5545 95.4299 49.3726 95.7937 49.655 96.3222C49.4693 99.4996 49.2419 102.681 48.9724 105.866C48.926 106.47 48.7439 107.016 48.4263 107.502C48.0613 107.157 47.6518 107.021 47.1977 107.093C47.7438 107.457 48.2898 107.821 48.8359 108.184C48.6199 109.311 48.3925 110.447 48.1533 111.593C47.3288 112.678 47.0104 113.86 47.1977 115.137C45.9653 114.508 44.6911 113.917 43.3753 113.365C43.2328 113.212 43.1419 113.03 43.1023 112.82C43.9623 111.232 44.827 109.641 45.696 108.048C45.9182 106.815 45.8727 105.633 45.5595 104.503C45.4571 103.903 45.275 103.358 45.0135 102.867V101.776V100.685C47.2566 100.945 48.0758 99.9904 47.4706 97.822C48.2993 96.4734 48.1628 95.2462 47.0611 94.1407C46.8482 93.6261 46.8937 93.1716 47.1976 92.7773C47.1378 93.0977 47.2287 93.3703 47.4707 93.5953C48.059 94.006 48.696 94.2787 49.3818 94.4134C50.3156 94.1751 51.2255 93.8569 52.112 93.459C52.263 92.9469 52.5362 92.5378 52.9312 92.2319Z" fill="#1A7A89"/>
<path d="M93.064 91.9711C93.2325 92.0013 93.369 92.0922 93.4735 92.2438C93.6556 102.697 93.6556 113.15 93.4735 123.604C93.3977 123.354 93.2611 123.172 93.064 123.058V91.9722V91.9711Z" fill="#158B8E"/>
<path d="M93.8839 83.2347C93.9292 85.7813 93.8839 88.3266 93.7474 90.8698C93.2816 91.0901 93.0541 91.4536 93.0648 91.9606V123.046V125.228H92.7918V90.598C93.3283 88.6182 93.5104 86.5276 93.3379 84.3263C93.2442 83.7855 93.4263 83.4217 93.8839 83.2355V83.2347Z" fill="#1F788E"/>
<path d="M40.3718 101.516C40.8269 102.607 41.2817 103.697 41.7369 104.788C42.4981 106.607 42.8164 108.516 42.6924 110.514C42.3211 110.952 41.9116 111.361 41.4638 111.742C40.4447 112.042 39.4435 112.224 38.4605 112.287C39.6534 113.243 41.0185 113.743 42.5558 113.787C41.9145 115.068 41.2775 116.34 40.6447 117.604C41.2265 117.787 41.7725 117.968 42.2828 118.15C38.1886 117.68 34.0933 117.226 29.9967 116.786C30.3593 115.151 31.0874 113.697 32.1809 112.423C32.6186 112.744 32.9825 112.699 33.273 112.287C32.9953 112.001 32.9497 111.683 33.1365 111.333C33.4215 111.639 33.6033 112.002 33.6825 112.423C34.1794 111.1 34.589 109.737 34.9111 108.333C34.5144 107.748 34.6053 107.249 35.1841 106.833C34.5177 106.012 34.1993 105.058 34.2285 103.97C34.1376 104.061 34.0464 104.152 33.9555 104.243C33.7349 103.676 33.7805 103.131 34.092 102.607C34.3339 102.832 34.4249 103.104 34.3651 103.425H35.1841C35.1625 103.035 35.2535 102.671 35.4571 102.334C35.1841 102.152 34.9111 101.971 34.6381 101.789C34.8328 101.168 34.9693 100.532 35.0476 99.8799C35.3389 100.068 35.6575 100.205 36.0032 100.289C35.9123 100.38 35.8211 100.471 35.7302 100.562C35.8967 101.093 36.1242 101.593 36.4127 102.061C36.4679 101.583 36.6044 101.128 36.8223 100.698C37.0811 101.575 37.445 101.665 37.9143 100.971C38.3247 101.268 38.4156 101.586 38.1874 101.925C38.8505 102.842 39.2144 102.842 39.2794 101.925C39.6619 101.813 40.0261 101.677 40.3718 101.516Z" fill="#FEC076"/>
<path d="M41.7374 100.681C42.1013 102.045 42.4655 103.408 42.8295 104.772C43.4722 104.679 44.1091 104.543 44.7406 104.363C44.988 103.899 45.0789 103.399 45.0136 102.863C45.2752 103.354 45.4573 103.9 45.5597 104.499C45.605 105.594 45.5594 106.684 45.4232 107.771C45.2883 107.326 45.243 106.871 45.2867 106.408C44.5452 106.359 43.817 106.223 43.1025 105.999C43.4331 105.755 43.4331 105.528 43.1025 105.317C42.8295 104.953 42.5565 104.953 42.2834 105.317C42.0972 105.114 41.9151 104.933 41.7374 104.772C41.2823 103.681 40.8274 102.59 40.3723 101.499C40.7821 101.158 41.2372 100.885 41.7374 100.681Z" fill="#F59458"/>
<path d="M29.9952 92.5188C30.1924 92.6328 30.3289 92.8144 30.4048 93.0642C30.4957 94.4276 30.5869 95.791 30.6778 97.1544C31.7876 100.724 32.8341 104.314 33.8176 107.925C33.567 109.541 33.021 111.041 32.1795 112.425C31.086 113.698 30.3579 115.152 29.9953 116.788C34.0916 117.227 38.1872 117.682 42.2814 118.151C46.5827 118.881 50.9508 119.335 55.3866 119.515C52.6102 119.783 49.7889 119.783 46.9229 119.515C39.5768 118.829 32.2962 117.921 25.0812 116.788C23.6926 116.374 22.2367 116.147 20.7128 116.106C21.2378 115.886 21.7839 115.749 22.351 115.697C23.5331 115.955 24.7164 116.091 25.9002 116.106C25.5737 115.928 25.5737 115.791 25.9002 115.697C26.4277 115.975 26.9738 116.021 27.5384 115.833C28.2218 115.411 28.2218 114.956 27.5384 114.47C27.7975 114.302 28.0249 114.347 28.2209 114.606C28.4085 113.946 28.272 113.356 27.8114 112.834C28.151 112.71 28.3785 112.846 28.494 113.243C28.6878 112.841 29.0062 112.659 29.4495 112.698C29.4089 112.984 29.4542 113.257 29.586 113.516C29.9724 112.774 30.5184 112.593 31.2242 112.97C31.2619 112.443 31.1254 111.943 30.8147 111.471C31.0877 110.834 31.5428 110.38 32.1798 110.107C31.7003 110.052 31.2455 109.916 30.8147 109.698C31.255 109.826 31.6646 109.644 32.0433 109.153C32.263 109.807 32.4905 109.762 32.7258 109.016C32.1421 108.109 32.233 107.382 32.9988 106.835C32.3389 106.523 32.1568 106.069 32.4528 105.471C32.1211 104.9 31.8934 104.945 31.7703 105.608C31.4847 105.174 31.1661 104.765 30.8147 104.381C30.9056 104.29 30.9968 104.199 31.0877 104.108C30.7437 103.805 30.4251 103.759 30.1321 103.972C29.95 103.517 29.95 103.063 30.1321 102.608C30.4172 102.302 30.599 101.939 30.6782 101.517C30.7462 101.824 30.8827 102.097 31.0877 102.336C31.1786 102.29 31.2698 102.245 31.3607 102.199C31.1322 101.924 31.0413 101.605 31.0877 101.245C30.2711 101.291 29.725 100.928 29.4495 100.154C30.0445 99.6679 30.0445 99.1225 29.4495 98.518C29.7305 98.5736 30.0035 98.4372 30.2686 98.1089C30.2088 97.105 30.2088 96.0595 30.2686 94.9733C29.8042 95.1003 29.3947 95.1003 29.04 94.9733C28.8882 95.5445 28.7517 95.59 28.6305 95.1096C29.3594 94.2839 29.8146 93.4203 29.9956 92.5191L29.9952 92.5188Z" fill="#F5F1EF"/>
<path d="M91.9725 90.589H92.7916V125.219C92.8407 126.359 92.6586 127.45 92.2456 128.491H91.9725V128.218V90.5868V90.589Z" fill="#204175"/>
<path d="M1.05627 113.773C2.39011 114.317 3.8533 114.552 5.42466 114.727C11.9749 115.456 18.5434 115.973 25.0822 116.773C32.3319 117.659 39.5944 118.654 46.9238 119.499C50.6259 119.926 54.366 120.363 58.1177 120.999C59.5446 121.241 60.7985 122.207 61.2575 123.59C66.8051 140.308 71.9472 157.156 76.9563 174.036C77.6127 176.248 78.1919 178.432 78.8675 180.581C79.0679 181.218 79.1195 181.882 79.4135 182.49C79.7381 182.743 80.1021 182.834 80.5056 182.762C79.6409 185.355 77.8397 186.257 75.0452 185.762C73.8638 185.552 72.6819 185.387 71.496 185.217C58.1665 183.298 44.8 181.392 31.3606 179.763C29.167 179.497 26.9723 179.378 24.808 178.945C24.7188 178.927 24.6256 178.952 24.535 178.945C23.1005 178.835 21.8724 178.282 20.8491 177.309C19.9067 175.093 19.0876 172.821 18.3919 170.492C18.2874 170.34 16.345 164.514 15.2521 161.766C14.4724 159.805 13.9368 157.767 13.3409 155.767C12.9526 154.463 12.4049 153.231 11.9758 151.949C7.97379 139.991 4.04929 127.982 0.0994598 115.955C-0.206327 115.024 0.215591 114.269 1.05505 113.774L1.05627 113.773Z" fill="#C6D1DE"/>
<path d="M45.5574 104.515C45.8706 105.646 45.9162 106.827 45.694 108.06C44.8249 109.653 43.9603 111.244 43.1002 112.832C43.1398 113.042 43.2308 113.224 43.3733 113.377C44.689 113.929 45.9632 114.52 47.1957 115.15C49.1655 115.82 51.1677 116.411 53.202 116.922C54.1076 117.058 55.0176 117.103 55.9322 117.058C55.8345 117.928 55.6523 118.746 55.3862 119.513C50.9507 119.333 46.5823 118.879 42.281 118.149C41.7707 117.968 41.2247 117.786 40.6429 117.604C41.2757 116.34 41.9127 115.067 42.554 113.786C41.0166 113.743 39.6515 113.243 38.4588 112.286C39.4416 112.223 40.4428 112.041 41.4621 111.741C41.9098 111.361 42.3194 110.952 42.6907 110.514C42.8146 108.515 42.4963 106.606 41.7351 104.788C41.9128 104.949 42.0949 105.13 42.2811 105.333C42.5541 104.969 42.8271 104.969 43.1002 105.333C43.4308 105.544 43.4308 105.771 43.1002 106.015C43.8147 106.239 44.5428 106.375 45.2843 106.424C45.2406 106.887 45.286 107.341 45.4208 107.787C45.5571 106.7 45.6028 105.61 45.5574 104.515Z" fill="#F59458"/>
<path d="M118.183 118.415C118.982 118.433 119.71 118.615 120.367 118.96C119.992 118.918 119.628 118.963 119.275 119.097C119.974 120.084 120.566 121.13 121.05 122.232C121.232 124.232 121.232 126.232 121.05 128.232C120.745 129.465 120.518 130.737 120.367 132.049C120.094 132.14 119.912 132.322 119.821 132.594C120.254 133.051 120.436 133.596 120.367 134.231C119.967 133.478 119.785 133.569 119.821 134.503C119.135 134.411 118.498 134.411 117.91 134.503C117.684 134.254 117.411 134.072 117.091 133.958C116.016 134.245 114.924 134.427 113.815 134.503C113.211 134.527 112.665 134.391 112.176 134.094C112.372 133.644 112.463 133.235 112.45 132.867C112.804 133.028 113.032 133.301 113.132 133.685C113.319 133.145 113.182 132.691 112.723 132.322C113.843 131.671 115.026 131.171 116.272 130.822C114.192 131.119 112.098 131.437 109.992 131.776C108.085 131.819 107.63 131.046 108.627 129.459C111.142 128.591 113.69 127.773 116.272 127.004C111.948 127.834 107.671 128.789 103.44 129.868C102.202 129.954 101.019 129.864 99.8905 129.595H101.256C101.149 128.536 101.331 127.536 101.802 126.595C100.789 126.368 99.7884 126.459 98.7984 126.868C98.8286 126.7 98.9196 126.563 99.0714 126.459C100.221 126.219 101.313 125.901 102.348 125.505H104.259C105.345 125.439 106.346 125.166 107.262 124.687C110.369 124.025 113.372 123.071 116.272 121.823C115.082 121.504 114.081 120.913 113.268 120.051C113.035 119.229 112.534 119.047 111.767 119.506C111.521 119.159 111.203 118.887 110.811 118.687C112.235 117.081 113.782 116.945 115.452 118.278C116.358 118.414 117.268 118.46 118.183 118.415L118.183 118.415Z" fill="#FDC078"/>
<path d="M115.997 117.607C116.777 117.799 117.505 118.071 118.182 118.425C117.267 118.47 116.357 118.424 115.451 118.288C113.781 116.955 112.234 117.091 110.81 118.697C111.202 118.896 111.52 119.169 111.766 119.515C112.533 119.057 113.034 119.239 113.267 120.061C112.85 120.041 112.577 120.223 112.448 120.606C109.872 122.528 107.141 124.164 104.258 125.514H102.347C101.766 124.806 101.675 124.034 102.074 123.197C104.785 121.668 107.425 120.032 109.991 118.288C110.97 117.685 112.016 117.276 113.131 117.061C114.084 117.273 115.039 117.454 115.998 117.607L115.997 117.607Z" fill="#F7C881"/>
<path d="M133.199 123.318H128.831C129.319 120.683 129.819 118.047 130.333 115.41C131.264 118.064 132.219 120.7 133.199 123.318Z" fill="#E7EBEE"/>
<path d="M113.269 120.058C114.081 120.92 115.082 121.511 116.272 121.83C113.372 123.078 110.369 124.032 107.262 124.694C108.251 124.065 109.434 123.474 110.812 122.921C111.464 122.204 112.01 121.432 112.45 120.603C112.579 120.22 112.852 120.038 113.269 120.058Z" fill="#EE6E30"/>
<path d="M112.449 120.606C112.009 121.434 111.463 122.207 110.811 122.924C109.433 123.477 108.25 124.067 107.261 124.696C106.346 125.175 105.345 125.448 104.258 125.514C107.142 124.163 109.872 122.527 112.449 120.606Z" fill="#F68B3F"/>
<path d="M120.366 118.963C123.265 119.729 125.814 121.138 128.01 123.189C128.269 123.321 128.542 123.366 128.829 123.326H133.198C136.671 124.068 140.22 124.432 143.846 124.416C147.606 124.728 151.155 125.819 154.493 127.688C154.71 127.455 154.619 127.228 154.22 127.007C153.401 126.689 152.672 126.234 152.036 125.643C150.671 125.439 149.397 124.985 148.214 124.28C149.943 123.644 151.672 123.007 153.401 122.371C153.947 122.008 154.493 121.644 155.04 121.28C154.781 121.149 154.508 121.103 154.22 121.144C154.497 120.824 154.861 120.642 155.313 120.599H156.132C157.614 124.701 158.842 128.882 159.817 133.142C160.06 134.808 159.742 136.353 158.862 137.778H158.589C155.492 137.844 152.398 137.98 149.306 138.187C148.562 138.682 147.789 138.818 146.985 138.596C146.397 138.837 146.169 139.292 146.303 139.959C145.467 141.468 144.739 143.014 144.119 144.595C143.744 144.638 143.38 144.592 143.027 144.459C137.67 141.602 132.574 138.375 127.738 134.779C127.721 134.63 127.63 134.54 127.464 134.506C126.665 135.491 125.664 136.127 124.461 136.415C123.24 136.394 122.057 136.576 120.912 136.96C120.548 136.869 120.184 136.778 119.82 136.687C120.132 135.897 120.313 135.079 120.366 134.233C120.435 133.599 120.253 133.053 119.82 132.597C119.911 132.324 120.093 132.142 120.366 132.052C120.517 130.74 120.744 129.467 121.048 128.234C121.23 126.235 121.23 124.235 121.048 122.235C120.564 121.132 119.973 120.087 119.274 119.099C119.627 118.966 119.991 118.92 120.366 118.963L120.366 118.963Z" fill="#FAAF70"/>
<path d="M149.853 122.77C149.303 123.158 148.666 123.34 147.942 123.316C148.492 122.927 149.129 122.746 149.853 122.77Z" fill="#AD805C"/>
<path d="M133.199 123.318C136.257 123.509 139.306 123.782 142.346 124.136C143.581 124.097 144.81 124.006 146.031 123.863C145.393 124.283 144.665 124.465 143.847 124.409C140.221 124.424 136.672 124.06 133.199 123.318Z" fill="#CF9F79"/>
<path d="M154.221 121.127C154.509 121.087 154.782 121.132 155.04 121.264C154.494 121.627 153.948 121.991 153.402 122.354C151.673 122.99 149.944 123.627 148.215 124.263C149.398 124.968 150.672 125.422 152.037 125.626C152.673 126.217 153.402 126.672 154.221 126.99C154.62 127.211 154.711 127.438 154.494 127.672C151.156 125.802 147.607 124.711 143.847 124.4C144.664 124.456 145.392 124.274 146.031 123.854C146.62 123.607 147.257 123.425 147.942 123.309C148.666 123.333 149.303 123.152 149.853 122.763C151.268 122.17 152.724 121.625 154.221 121.127Z" fill="#F59458"/>
<path d="M97.4324 127.412C96.9505 127.674 96.4044 127.765 95.7943 127.685V128.503C95.5475 128.31 95.4565 128.037 95.5212 127.685C96.0965 127.421 96.7337 127.33 97.4324 127.412Z" fill="#7D9D74"/>
<path d="M98.798 126.865C98.508 127.337 98.508 127.792 98.798 128.228C97.7897 128.381 96.7885 128.563 95.7947 128.773V128.501V127.683C96.4049 127.763 96.951 127.672 97.4328 127.41C97.9827 127.439 98.4376 127.258 98.798 126.865Z" fill="#E2D071"/>
<path d="M99.8894 129.603C99.1258 129.475 98.7616 129.021 98.7974 128.239C98.5074 127.803 98.5074 127.349 98.7974 126.876C99.7873 126.467 100.788 126.376 101.801 126.603C101.33 127.544 101.148 128.544 101.255 129.603L99.8894 129.603Z" fill="#F7A438"/>
<path d="M91.9726 128.221V128.493V130.129C89.1392 130.404 86.3179 130.768 83.5089 131.22V130.402C84.0984 129.9 84.8262 129.582 85.6931 129.448C87.7525 128.882 89.8455 128.473 91.9726 128.221Z" fill="#10C8D4"/>
<path d="M92.7924 125.222H93.0654V127.676H95.5226C95.4579 128.028 95.5489 128.3 95.7957 128.494V128.767C95.9764 129.926 95.4303 130.562 94.1575 130.675H93.3385H92.5194C92.5464 129.929 92.4552 129.202 92.2464 128.494C92.6594 127.453 92.8416 126.362 92.7924 125.222Z" fill="#2F3057"/>
<path d="M83.5099 130.411V131.229C83.1801 131.43 82.8162 131.52 82.4178 131.502V130.411H83.5099Z" fill="#D5EAE8"/>
<path d="M120.366 134.219C120.313 135.064 120.132 135.882 119.82 136.673C120.184 136.764 120.548 136.855 120.912 136.946C122.057 136.561 123.24 136.379 124.461 136.4C123.183 136.939 121.818 137.257 120.366 137.355C117.272 137.537 114.177 137.537 111.083 137.355C109.815 136.96 109.269 136.096 109.445 134.764C107.612 134.943 106.702 134.125 106.715 132.31C104.478 132.886 103.386 132.068 103.439 129.856C107.669 128.777 111.946 127.823 116.271 126.993C113.689 127.762 111.141 128.58 108.626 129.447C107.628 131.035 108.084 131.807 109.991 131.765C112.097 131.425 114.191 131.107 116.271 130.81C115.025 131.16 113.842 131.659 112.721 132.31C113.181 132.679 113.318 133.134 113.131 133.673C113.03 133.289 112.803 133.016 112.448 132.855C112.462 133.223 112.371 133.632 112.175 134.082C112.663 134.379 113.21 134.515 113.813 134.491C114.923 134.415 116.015 134.233 117.09 133.946C117.41 134.06 117.683 134.242 117.909 134.491C118.497 134.399 119.134 134.399 119.82 134.491C119.784 133.558 119.965 133.467 120.366 134.219Z" fill="#F8B574"/>
<path d="M123.643 154.143C120.74 157.86 117.464 161.223 113.814 164.232C113.462 164.168 113.188 164.259 112.995 164.505H94.4294C94.3385 153.414 94.4294 142.325 94.7024 131.239C95.2894 131.962 95.9264 132.644 96.6136 133.284C105.714 140.01 114.815 146.736 123.915 153.463C123.71 153.646 123.619 153.873 123.642 154.144L123.643 154.143Z" fill="#148696"/>
<path d="M98.798 128.221C98.7622 129.002 99.1264 129.457 99.8901 129.584C101.019 129.853 102.202 129.943 103.439 129.857C103.387 132.069 104.479 132.887 106.716 132.311C106.703 134.126 107.613 134.944 109.446 134.765C109.27 136.097 109.816 136.961 111.084 137.356C114.178 137.537 117.272 137.537 120.367 137.356C121.819 137.258 123.184 136.939 124.462 136.401C125.665 136.114 126.666 135.478 127.465 134.492C127.631 134.526 127.722 134.617 127.738 134.765C128.705 136.697 129.524 138.697 130.195 140.764C128.911 144.694 127.091 148.421 124.735 151.944C124.395 152.441 124.212 152.987 124.189 153.58C124.189 153.944 124.007 154.126 123.643 154.126C123.619 153.854 123.711 153.627 123.916 153.444C114.815 146.718 105.714 139.992 96.6142 133.266C95.927 132.625 95.29 131.943 94.703 131.22C94.43 142.308 94.3391 153.397 94.43 164.486H94.157V161.487V130.675C95.4298 130.562 95.9758 129.926 95.7951 128.766C96.7889 128.555 97.7901 128.373 98.7984 128.221H98.798Z" fill="#156579"/>
<path d="M184.254 137.505C180.448 146.454 176.535 155.362 172.515 164.228V164.5C171.743 165.678 171.106 166.95 170.603 168.318C169.938 169.648 169.255 171.011 168.556 172.408C168.109 173.017 167.517 173.381 166.781 173.499C165.584 173.659 164.401 173.659 163.232 173.499C152.494 176.008 141.755 178.553 131.016 181.134C131.952 178.173 133.044 175.264 134.292 172.408C138.576 162.257 142.626 151.986 146.442 141.596C146.924 140.785 147.606 140.194 148.489 139.823C160.21 138.28 171.95 137.008 183.708 136.006C184.08 136.438 184.262 136.938 184.254 137.506L184.254 137.505Z" fill="#362649"/>
<path d="M158.59 137.766C155.162 138.081 151.703 138.49 148.215 138.993C147.545 139.254 146.908 139.572 146.304 139.947C146.17 139.279 146.398 138.825 146.987 138.584C147.79 138.806 148.563 138.669 149.307 138.175C152.399 137.968 155.493 137.831 158.59 137.766Z" fill="#EBAF80"/>
<path d="M127.74 134.766C132.576 138.363 137.672 141.59 143.029 144.447C143.382 144.58 143.746 144.626 144.121 144.583V145.128C141.447 147.842 138.626 150.432 135.657 152.9C135.363 153.028 135.09 152.982 134.838 152.763C133.715 148.575 132.167 144.576 130.197 140.765C129.525 138.698 128.706 136.699 127.74 134.766Z" fill="#F2EFF2"/>
<path d="M93.3382 130.672H94.1572V161.484C94.0657 151.437 93.7927 141.439 93.3382 131.488V130.67V130.672Z" fill="#103D64"/>
<path d="M37.369 142.147H38.1881C38.0977 143.326 37.6426 144.326 36.8229 145.146C36.3618 144.002 36.5439 143.002 37.369 142.147Z" fill="#F8FBFB"/>
<path d="M34.3636 145.146C35.1794 145.326 35.9985 145.508 36.8208 145.691C37.4804 145.589 38.1177 145.407 38.7319 145.146C39.5213 145.427 40.2038 145.882 40.7796 146.509C40.6906 147.592 40.6906 148.683 40.7796 149.781C41.2424 150.653 41.925 151.289 42.8273 151.69C42.3615 152.849 41.7246 153.894 40.9161 154.826C39.681 154.567 38.4071 154.385 37.0937 154.281C34.6508 152.264 33.4223 149.673 33.4079 146.509C33.6801 146.012 33.9988 145.558 34.3636 145.146Z" fill="#FBFCFC"/>
<path d="M93.3382 131.507C93.7927 141.457 94.0657 151.455 94.1572 161.502V164.502H93.3382V131.507V131.507Z" fill="#233769"/>
<path d="M144.119 145.146C142.282 150.24 140.417 155.33 138.522 160.416C138.095 161.48 137.594 162.48 137.021 163.416C136.782 159.771 136.054 156.226 134.836 152.781C135.088 153 135.361 153.045 135.655 152.917C138.625 150.45 141.446 147.86 144.119 145.146Z" fill="#F3EFF4"/>
<path d="M130.197 140.765C132.167 144.575 133.715 148.574 134.838 152.763C136.056 156.208 136.784 159.753 137.022 163.397C137.116 163.938 136.934 164.302 136.476 164.488H112.996C113.19 164.242 113.463 164.151 113.815 164.215C121.003 164.146 128.192 164.055 135.384 163.943C132.737 160.143 129.006 156.689 124.19 153.581C124.214 152.987 124.396 152.442 124.736 151.945C127.092 148.421 128.913 144.694 130.197 140.765Z" fill="#185972"/>
<path d="M124.188 153.595C129.004 156.704 132.736 160.157 135.382 163.957C128.19 164.07 121.001 164.161 113.813 164.23C117.464 161.221 120.74 157.858 123.642 154.141C124.006 154.141 124.188 153.959 124.188 153.595Z" fill="#146178"/>
<path d="M160.773 154.404C161.244 154.497 161.38 154.77 161.182 155.222C160.795 155.484 160.385 155.711 159.954 155.904C160.515 155.988 161.061 156.125 161.592 156.313C161.683 156.54 161.774 156.767 161.865 156.994C161.256 158.166 160.756 159.393 160.363 160.676C160.136 160.903 159.908 161.13 159.681 161.357C158.567 161.558 157.475 161.739 156.404 161.903C155.784 159.955 156.148 158.228 157.497 156.722C158.927 156.429 160.02 155.656 160.773 154.404L160.773 154.404Z" fill="#362649"/>
<path d="M75.0447 164.235C75.9288 164.576 76.8843 164.758 77.9115 164.781C83.0507 164.545 88.1927 164.454 93.3371 164.508H94.1562H94.4292H112.995H136.475C136.031 166.349 135.394 168.122 134.563 169.826C130.415 171.043 126.228 172.089 122.005 172.961C117.629 171.868 113.17 171.005 108.627 170.371C97.7077 168.917 86.7867 167.463 75.8649 166.008C75.2045 165.596 74.9315 165.006 75.0459 164.235L75.0447 164.235Z" fill="#FCBD3E"/>
<path d="M58.6626 109.418C59.0628 109.649 59.2906 110.012 59.3452 110.509C64.4982 128.447 69.7309 146.354 75.044 164.228C74.9296 164.999 75.2026 165.589 75.863 166.001C86.7858 167.455 97.7065 168.91 108.625 170.364C113.168 170.998 117.627 171.861 122.003 172.954C115.662 174.379 109.383 175.924 103.164 177.59H102.345C95.1326 179.535 87.8517 181.262 80.5035 182.771C80.1 182.843 79.7361 182.752 79.4114 182.498C79.1174 181.891 78.9353 181.254 78.8654 180.59C79.5308 181.676 79.8494 181.494 79.821 180.044C79.8969 180.294 80.0334 180.476 80.2305 180.59C80.2127 180.709 80.2581 180.8 80.367 180.862C80.7995 180.491 81.3002 180.309 81.8686 180.317C82.0507 180.317 82.1417 180.226 82.1417 180.044C82.4941 180.109 82.7671 180.018 82.9607 179.772C84.0528 179.59 85.1449 179.408 86.2369 179.226C86.725 178.992 87.1802 178.719 87.602 178.408C88.652 178.396 89.6532 178.169 90.6053 177.726C89.5323 177.66 88.5311 177.433 87.602 177.045C89.3264 177.279 91.0557 177.324 92.7895 177.181C92.9413 177.077 93.0322 176.94 93.0625 176.772C93.8816 176.59 94.7006 176.409 95.5197 176.227C96.3789 176.162 97.1979 175.935 97.9769 175.545C91.3347 174.659 84.691 173.795 78.0463 172.954C77.8366 173.163 77.7001 173.435 77.6368 173.773C77.4536 173.978 77.2261 174.069 76.9542 174.045C71.7643 157.22 66.5314 140.404 61.2554 123.598C60.5344 122.332 59.4876 121.468 58.1155 121.008C54.3328 120.594 50.6018 120.094 46.9217 119.508C49.7877 119.776 52.609 119.776 55.3854 119.508C55.6516 118.742 55.8337 117.924 55.9314 117.054C56.3718 116.933 56.6904 116.66 56.887 116.236C57.6083 113.99 58.1999 111.718 58.6616 109.419L58.6626 109.418Z" fill="#F1F1F3"/>
<path d="M184.254 137.505C184.262 136.937 184.08 136.437 183.708 136.005C171.949 137.007 160.209 138.279 148.49 139.823C147.607 140.193 146.924 140.784 146.442 141.595C142.627 151.986 138.577 162.257 134.293 172.407C134.31 172.288 134.265 172.197 134.156 172.134C133.472 173.146 132.517 173.736 131.289 173.907C128.249 174.617 125.245 175.435 122.28 176.361C122.955 176.392 123.501 176.665 123.918 177.179C122.469 177.081 121.013 177.081 119.549 177.179C120.116 177.232 120.663 177.368 121.188 177.588C120.819 178.003 120.455 178.185 120.095 178.133C120.732 178.315 121.37 178.497 122.007 178.679C122.087 179.094 122.087 179.458 122.007 179.77H121.734C120.239 179.5 118.692 179.409 117.092 179.497C112.457 178.988 107.816 178.351 103.168 177.588C109.387 175.922 115.666 174.377 122.006 172.952C126.23 172.08 130.417 171.034 134.565 169.817C135.396 168.113 136.033 166.341 136.477 164.499C136.934 164.313 137.116 163.949 137.023 163.409C137.596 162.473 138.097 161.473 138.524 160.409C140.419 155.323 142.284 150.233 144.121 145.139V144.593C144.741 143.012 145.47 141.467 146.305 139.958C146.91 139.583 147.547 139.265 148.216 139.003C151.705 138.501 155.163 138.092 158.591 137.776H158.864C162.131 137.341 165.407 136.977 168.693 136.685C173.474 136.174 178.251 135.629 183.027 135.049C184.445 135.382 184.854 136.2 184.255 137.503L184.254 137.505Z" fill="#42416D"/>
<path d="M166.781 173.493C165.859 173.925 164.858 174.107 163.778 174.039V174.857V175.13C153.066 177.464 142.418 180.008 131.833 182.765C130.228 183.191 128.59 183.373 126.919 183.31C126.562 183.11 126.198 182.883 125.827 182.628C123.714 182.506 121.621 182.279 119.547 181.947V180.856H123.37V181.129C123.852 181.391 124.398 181.482 125.008 181.401V180.311C126.122 179.815 126.987 180.087 127.602 181.129C128.177 180.64 128.859 180.458 129.649 180.583V181.674C130.21 181.701 130.665 181.519 131.014 181.129C141.754 178.547 152.493 176.003 163.23 173.493C164.399 173.653 165.582 173.653 166.78 173.493H166.781Z" fill="#2E2248"/>
<path d="M78.0475 172.946C84.6922 173.787 91.3359 174.65 97.9781 175.536C97.1991 175.926 96.3801 176.153 95.5209 176.218C93.8803 176.263 92.2421 176.218 90.6065 176.082C90.5156 175.991 90.4244 175.9 90.3335 175.809C90.6534 175.695 90.9265 175.513 91.1526 175.264C91.0616 175.218 90.9704 175.173 90.8795 175.127C90.0222 175.542 89.1123 175.77 88.1493 175.809C89.7487 176.333 91.3869 176.651 93.0637 176.763C93.0334 176.932 92.9425 177.068 92.7907 177.172C91.057 177.315 89.3276 177.27 87.6032 177.036C84.7111 176.627 81.7987 176.127 78.8664 175.536C78.7416 175.423 78.6505 175.287 78.5934 175.127C78.9573 175.036 79.3215 174.945 79.6855 174.855C82.3235 175.199 84.9628 175.426 87.6031 175.536C84.5038 175.052 81.4093 174.597 78.3204 174.173C78.0801 173.803 77.989 173.394 78.0475 172.946Z" fill="#2E3345"/>
<path d="M95.521 176.232C94.702 176.414 93.8829 176.595 93.0638 176.777C91.3869 176.665 89.7488 176.347 88.1495 175.823C89.1124 175.783 90.0224 175.556 90.8797 175.141C90.9706 175.187 91.0618 175.232 91.1527 175.277C90.9266 175.527 90.6536 175.708 90.3336 175.823C90.4245 175.914 90.5157 176.005 90.6066 176.095C92.2423 176.232 93.8805 176.277 95.521 176.232Z" fill="#9598A7"/>
<path d="M87.6042 177.04C88.5333 177.429 89.5344 177.656 90.6075 177.722C89.6555 178.164 88.6543 178.391 87.6042 178.404C84.8787 178.077 82.1485 177.76 79.4136 177.449C79.1851 177.174 79.0942 176.855 79.1406 176.495C81.9617 176.677 84.7831 176.858 87.6042 177.04Z" fill="#303346"/>
<path d="M78.0475 172.946C77.9891 173.394 78.0803 173.803 78.3205 174.173C81.4095 174.597 84.5039 175.052 87.6033 175.536C84.9629 175.426 82.3236 175.199 79.6856 174.855C79.3217 174.945 78.9575 175.036 78.5935 175.127C78.6506 175.287 78.7418 175.423 78.8666 175.536C81.7988 176.127 84.711 176.627 87.6033 177.036C84.7823 176.854 81.9607 176.673 79.1397 176.491C79.0933 176.851 79.1842 177.169 79.4127 177.445C82.1476 177.755 84.8778 178.073 87.6032 178.399C87.1814 178.71 86.7263 178.983 86.2381 179.218C86.539 178.783 86.3569 178.556 85.6921 178.536C83.595 178.232 81.5018 178.187 79.4126 178.399C79.5587 178.88 79.8317 179.243 80.2317 179.49C81.0557 179.445 81.8747 179.491 82.6889 179.627C82.4388 179.702 82.257 179.839 82.1429 180.036C82.1429 180.217 82.0519 180.308 81.8698 180.308C81.6585 180.132 81.3855 180.041 81.0508 180.036C80.633 180.074 80.36 180.256 80.2317 180.581C80.0346 180.467 79.8981 180.285 79.8222 180.036C79.8506 181.485 79.532 181.667 78.8666 180.581C78.0656 178.476 77.4286 176.294 76.9555 174.036C77.2274 174.06 77.4548 173.969 77.638 173.764C77.7014 173.426 77.8378 173.154 78.0475 172.946Z" fill="#D8DBE3"/>
<path d="M86.2386 179.231C85.1465 179.413 84.0544 179.594 82.9624 179.776C83.0765 179.579 83.2584 179.443 83.5084 179.367C82.3647 179.146 81.2726 179.191 80.2323 179.504C79.8323 179.256 79.5593 178.893 79.4132 178.413C81.5024 178.2 83.5957 178.245 85.6927 178.549C86.3575 178.57 86.5394 178.797 86.2386 179.231Z" fill="#262B3F"/>
<path d="M102.347 177.588H103.166C107.813 178.351 112.455 178.987 117.09 179.497C116.13 179.554 115.22 179.554 114.359 179.497C113.92 179.72 113.737 180.084 113.813 180.587C113.183 180.7 112.546 180.791 111.902 180.86C110.899 180.677 109.897 180.495 108.899 180.315C108.353 180.224 107.807 180.133 107.261 180.042C106.793 179.704 106.247 179.522 105.623 179.497C105.235 179.237 104.78 179.147 104.258 179.224C103.55 178.738 102.913 178.193 102.347 177.588Z" fill="#2E2248"/>
<path d="M134.291 172.398C133.043 175.254 131.951 178.163 131.015 181.124C130.665 181.514 130.21 181.696 129.65 181.669V180.579C128.859 180.454 128.177 180.636 127.602 181.124C126.987 180.083 126.122 179.81 125.008 180.306C124.882 179.93 124.609 179.748 124.189 179.761C123.751 179.88 123.342 180.062 122.961 180.306C122.65 180.173 122.331 180.082 122.005 180.033V179.761C122.085 179.449 122.085 179.085 122.005 178.67C121.368 178.488 120.731 178.306 120.094 178.125C120.453 178.176 120.817 177.994 121.186 177.579C120.661 177.359 120.115 177.223 119.548 177.17C121.011 177.072 122.467 177.072 123.916 177.17C123.499 176.656 122.953 176.383 122.278 176.352C125.244 175.426 128.247 174.608 131.288 173.898C132.515 173.727 133.47 173.137 134.154 172.126C134.263 172.188 134.309 172.279 134.291 172.398Z" fill="#42416D"/>
<path d="M80.233 179.492C81.2735 179.179 82.3656 179.134 83.5092 179.355C83.2591 179.431 83.0772 179.567 82.9631 179.764C82.7695 180.011 82.4965 180.102 82.1441 180.037C82.2582 179.84 82.44 179.704 82.6901 179.628C81.876 179.492 81.057 179.447 80.233 179.492Z" fill="#787C89"/>
<path d="M104.258 179.231C104.781 179.153 105.235 179.244 105.623 179.504C104.613 179.518 103.612 179.609 102.62 179.776C103.088 179.439 103.634 179.257 104.258 179.231Z" fill="#B8C0CA"/>
<path d="M117.091 179.492C118.691 179.404 120.238 179.495 121.733 179.764H119.822V180.582C120.695 180.728 121.423 180.547 122.006 180.037C122.332 180.085 122.651 180.176 122.962 180.31C123.343 180.066 123.752 179.884 124.19 179.764C124.61 179.751 124.883 179.933 125.009 180.31V181.4C124.399 181.481 123.853 181.39 123.371 181.128H124.736V180.31C124.136 180.206 123.681 180.388 123.371 180.855H119.549V181.946C121.622 182.278 123.715 182.505 125.828 182.627C126.199 182.882 126.563 183.11 126.92 183.309C123.914 182.968 120.911 182.604 117.911 182.218H116.545C113.994 181.582 111.446 180.946 108.901 180.31C109.899 180.49 110.901 180.672 111.904 180.855C112.548 180.786 113.185 180.695 113.815 180.582C113.739 180.079 113.922 179.715 114.361 179.492C115.222 179.549 116.132 179.549 117.091 179.492Z" fill="#2E2248"/>
<path d="M24.5354 178.944H24.8084V180.035C25.1609 179.97 25.4339 180.061 25.6275 180.307H24.5354V178.944Z" fill="#7B7C6F"/>
<path d="M24.8095 178.944C26.9702 179.394 29.1544 179.667 31.3621 179.762C31.4353 180.198 31.3441 180.561 31.0891 180.853H30.5431C29.2506 180.404 27.8855 180.223 26.4478 180.307H25.6287C25.4352 180.061 25.1621 179.97 24.8097 180.035L24.8095 178.944Z" fill="#243556"/>
<path d="M121.731 179.778H122.004V180.051C121.421 180.561 120.693 180.743 119.82 180.596V179.778H121.731Z" fill="#2E2248"/>
<path d="M81.8702 180.3C81.3017 180.292 80.801 180.474 80.3685 180.845C80.2596 180.783 80.2143 180.692 80.232 180.573C80.3603 180.247 80.6333 180.066 81.0511 180.027C81.3858 180.033 81.6589 180.124 81.8702 180.3Z" fill="#333640"/>
<path d="M102.346 177.588C102.913 178.193 103.55 178.738 104.258 179.224C103.634 179.25 103.087 179.432 102.62 179.769C94.3559 181.71 86.1654 183.892 78.0477 186.314C76.9864 186.274 75.9853 186.092 75.0444 185.768C77.82 186.361 79.6402 185.361 80.5047 182.769C87.8532 181.26 95.1338 179.533 102.346 177.588Z" fill="#B8C0CA"/>
<path d="M26.4467 180.3C27.8844 180.215 29.2495 180.397 30.542 180.845C29.1138 180.861 27.7486 180.679 26.4467 180.3Z" fill="#533F3D"/>
<path d="M123.371 181.135V180.862C123.681 180.395 124.136 180.213 124.736 180.316V181.135H123.371Z" fill="#2E2248"/>
<path d="M125.828 180.587C126.332 180.511 126.696 180.693 126.92 181.132C126.596 181.386 126.232 181.476 125.828 181.405V180.587Z" fill="#2E2248"/>
<path d="M33.5463 181.395C36.3648 181.559 39.1858 181.696 42.01 181.804C42.6142 182.245 43.2514 182.563 43.9211 182.759H43.3751C40.0373 182.479 36.7611 182.024 33.5463 181.395Z" fill="#A19B9B"/>
<path d="M31.3608 179.778C44.7759 181.578 58.1534 183.396 71.4962 185.232H70.4041C70.3858 185.63 70.4767 185.993 70.6772 186.323C69.0063 186.386 67.3681 186.204 65.7628 185.777C64.5563 185.376 63.2821 185.194 61.9404 185.232C55.9233 184.473 49.9167 183.655 43.9208 182.778C43.2511 182.582 42.6139 182.264 42.0097 181.824C39.1855 181.715 36.3645 181.578 33.546 181.414C32.665 181.367 31.8459 181.185 31.0889 180.869C31.3439 180.578 31.435 180.214 31.3619 179.778L31.3608 179.778Z" fill="#8899AC"/>
<path d="M71.4962 185.229C72.6675 185.481 73.8507 185.663 75.0455 185.774C75.9863 186.098 76.9875 186.28 78.0488 186.32C77.7266 186.978 77.1806 187.25 76.4106 187.138H75.0455C73.6427 186.748 72.1866 186.475 70.6771 186.32C70.4767 185.99 70.3858 185.627 70.4041 185.229H71.4962Z" fill="#342745"/>
<path d="M77.3321 65.8689C77.332 65.869 77.3321 65.8688 77.3321 65.8689Z" fill="#14C5D2"/>
<path d="M71.6659 132.732L77.5422 131.635L83.4183 130.538C83.4635 130.78 83.5086 131.021 83.5538 131.262C79.6365 131.994 75.7189 132.725 71.8012 133.457C71.756 133.215 71.7109 132.974 71.6657 132.732" fill="black"/>
<path d="M81.6404 129.968L98.8468 126.591C99.0029 127.384 99.1589 128.177 99.315 128.97C93.5796 130.096 87.8441 131.222 82.1086 132.348C81.9525 131.555 81.7965 130.761 81.6404 129.968Z" fill="#14C5D2"/>
<path d="M71.7782 132.706L71.1353 132.612L70.2184 132.831L70.4476 133.921L71.3596 133.822L71.9277 133.413L71.7782 132.706Z" fill="black"/>
<path d="M41.411 56.4335L41.242 62.4017L41.073 68.3698C40.8273 68.3629 40.5815 68.3559 40.3357 68.349C40.4483 64.3702 40.5609 60.3915 40.6736 56.4127C40.9194 56.4197 41.1652 56.4266 41.411 56.4335Z" fill="black"/>
<path d="M41.4081 56.5483L41.6366 55.9408L41.6161 54.9994L40.5004 54.9925L40.405 55.9038L40.6845 56.5447L41.4081 56.5483Z" fill="black"/>
<path d="M42.0089 66.7555L41.8422 75.5107L41.6755 84.2661C40.8662 84.2507 40.057 84.2354 39.2477 84.22C39.3588 78.3831 39.4699 72.5462 39.581 66.7094C40.3903 66.7248 41.1996 66.7402 42.0089 66.7555Z" fill="#14C5D2"/>
<path d="M104.193 178.109L136.367 179.936C134.477 180.822 132.587 181.709 130.698 182.595L104.192 178.11" fill="#2E2248"/>
</svg>
